<?xml version="1.0" encoding="UTF-8"?>
<svg xmlns="http://www.w3.org/2000/svg" xmlns:xlink="http://www.w3.org/1999/xlink" width="144pt" height="143.999998pt" viewBox="0 0 144 143.999998" version="1.2">
<defs>
<clipPath id="clip1">
  <path d="M 0 0.0351562 L 144 0.0351562 L 144 90 L 0 90 Z M 0 0.0351562 "/>
</clipPath>
</defs>
<g id="surface1">
<g clip-path="url(#clip1)" clip-rule="nonzero">
<path style=" stroke:none;fill-rule:nonzero;fill:rgb(0%,76.078796%,79.60968%);fill-opacity:1;" d="M 70.722656 0.0351562 C 69.164062 0.0507812 67.683594 0.777344 66.667969 2.035156 L 0 84.632812 L 6.078125 89.542969 L 70.8125 9.335938 L 138.078125 89.59375 L 144.066406 84.582031 L 74.828125 1.960938 C 73.789062 0.726562 72.28125 0.0351562 70.722656 0.0351562 Z M 70.722656 0.0351562 "/>
</g>
<path style=" stroke:none;fill-rule:nonzero;fill:rgb(0%,76.078796%,79.60968%);fill-opacity:1;" d="M 71.941406 87.453125 C 72.34375 87.308594 72.851562 86.644531 72.878906 86.230469 C 73.460938 76.164062 65.148438 62.730469 62.148438 58.246094 C 59.746094 59.210938 57.394531 60.769531 55.222656 63.132812 C 55.222656 63.132812 50.898438 66.03125 49.363281 80.136719 C 57.457031 90.621094 67.511719 88.90625 71.941406 87.453125 Z M 71.941406 87.453125 "/>
<path style=" stroke:none;fill-rule:nonzero;fill:rgb(0%,76.078796%,79.60968%);fill-opacity:1;" d="M 104.03125 69.5625 L 90.765625 66.328125 C 90.765625 66.328125 90.390625 63.132812 86.636719 61.820312 C 83.894531 60.859375 74.449219 55.429688 65.160156 57.351562 C 68.683594 62.679688 76.488281 75.863281 75.867188 86.410156 C 75.773438 88.0625 74.464844 89.777344 72.878906 90.296875 C 71.359375 90.804688 68.628906 91.503906 65.304688 91.503906 C 60.496094 91.503906 54.457031 90.023438 49.015625 84.332031 C 48.898438 86.152344 48.84375 88.101562 48.832031 90.21875 C 48.765625 101.128906 34.90625 111.472656 34.90625 111.472656 L 33.0625 115.304688 C 36.828125 123.449219 42.738281 130.425781 50.066406 135.492188 C 50.402344 130.28125 51.703125 126.191406 53.222656 123.125 C 56.09375 117.304688 60.109375 114.070312 62.160156 112.691406 C 62.601562 100.675781 66.5 97.15625 69.761719 96.351562 C 70.761719 96.101562 71.8125 96.324219 72.644531 96.949219 C 73.59375 97.648438 74.191406 98.804688 74.253906 100.050781 C 74.425781 103.285156 76.332031 105.558594 77.242188 106.457031 C 78.710938 106.597656 80.113281 106.832031 81.4375 107.144531 L 82.570312 96.21875 C 82.738281 94.570312 84.21875 93.167969 85.867188 92.933594 C 92.117188 92.023438 106.03125 88.320312 106.941406 73.292969 C 107.042969 71.628906 105.640625 69.964844 104.03125 69.5625 Z M 83.375 73.058594 C 82.4375 73.058594 81.6875 72.304688 81.6875 71.367188 C 81.6875 70.433594 82.4375 69.679688 83.375 69.679688 C 84.308594 69.679688 85.0625 70.433594 85.0625 71.367188 C 85.0625 72.304688 84.308594 73.058594 83.375 73.058594 Z M 83.375 73.058594 "/>
<path style=" stroke:none;fill-rule:nonzero;fill:rgb(0%,76.078796%,79.60968%);fill-opacity:1;" d="M 90.78125 117.835938 C 90.273438 113.5625 84.257812 110.054688 76.476562 109.5625 C 76.476562 109.5625 72.34375 106.378906 72.074219 100.910156 C 72.035156 100.078125 71.410156 99.246094 70.605469 99.453125 C 68.527344 99.960938 64.992188 102.625 64.824219 114.808594 C 64.824219 114.808594 53.523438 120.511719 52.703125 136.945312 C 59.953125 141.296875 68.382812 143.855469 77.398438 144 L 77.296875 141.648438 C 77.257812 140.816406 77.867188 139.90625 78.632812 139.621094 L 88.257812 136.011719 C 88.257812 136.011719 92.78125 136.257812 94.664062 132.867188 C 95.613281 131.164062 96.496094 129.96875 97.144531 129.203125 C 97.675781 128.566406 97.664062 127.65625 97.066406 127.085938 C 95.105469 125.1875 91.144531 121.007812 90.78125 117.835938 Z M 85.0625 121.953125 C 84.128906 121.953125 83.375 121.203125 83.375 120.265625 C 83.375 119.332031 84.128906 118.578125 85.0625 118.578125 C 86 118.578125 86.765625 119.332031 86.765625 120.265625 C 86.765625 121.203125 86 121.953125 85.0625 121.953125 Z M 85.0625 121.953125 "/>
</g>
</svg>
