<?xml version="1.0" encoding="UTF-8" standalone="no"?>
<!-- Created with Inkscape (http://www.inkscape.org/) -->

<svg
   version="1.1"
   id="svg2"
   xml:space="preserve"
   width="2666.6667"
   height="2666.6667"
   viewBox="0 0 2666.6667 2666.6667"
   sodipodi:docname="petsNmore Logo.ai"
   xmlns:inkscape="http://www.inkscape.org/namespaces/inkscape"
   xmlns:sodipodi="http://sodipodi.sourceforge.net/DTD/sodipodi-0.dtd"
   xmlns="http://www.w3.org/2000/svg"
   xmlns:svg="http://www.w3.org/2000/svg"><defs
     id="defs6"><clipPath
       clipPathUnits="userSpaceOnUse"
       id="clipPath16"><path
         d="M 0,2000 H 2000 V 0 H 0 Z"
         id="path14" /></clipPath></defs><sodipodi:namedview
     id="namedview4"
     pagecolor="#ffffff"
     bordercolor="#666666"
     borderopacity="1.0"
     inkscape:pageshadow="2"
     inkscape:pageopacity="0.0"
     inkscape:pagecheckerboard="0" /><g
     id="g8"
     inkscape:groupmode="layer"
     inkscape:label="petsNmore Logo"
     transform="matrix(1.3333333,0,0,-1.3333333,0,2666.6667)"><g
       id="g10"><g
         id="g12"
         clip-path="url(#clipPath16)"><g
           id="g18"
           transform="translate(276.811,519.0596)"><path
             d="m 0,0 c 7.733,4.489 13.802,10.685 18.21,18.585 4.405,7.897 6.611,16.752 6.611,26.567 0,9.811 -2.206,18.668 -6.611,26.569 C 13.802,79.619 7.733,85.854 0,90.432 c -7.733,4.571 -16.34,6.86 -25.82,6.86 -9.479,0 -18.047,-2.289 -25.695,-6.86 -7.651,-4.578 -13.681,-10.813 -18.086,-18.711 -4.408,-7.901 -6.611,-16.758 -6.611,-26.569 0,-2.83 0.082,-4.907 0.25,-6.236 0.164,-0.335 0.249,-0.748 0.249,-1.248 1.661,-12.971 7.109,-23.615 16.34,-31.932 9.231,-8.317 20.414,-12.471 33.553,-12.471 9.48,0 18.087,2.245 25.82,6.735 m 9.479,105.649 c 10.56,-6.073 18.874,-14.43 24.947,-25.071 6.069,-10.647 9.105,-22.452 9.105,-35.426 0,-12.971 -2.954,-24.74 -8.856,-35.299 -5.905,-10.564 -13.97,-18.877 -24.198,-24.947 -10.227,-6.072 -21.665,-9.104 -34.301,-9.104 -10.813,0 -20.706,2.284 -29.687,6.86 -8.98,4.573 -16.383,10.852 -22.202,18.835 v -73.094 c 0,-2.826 -0.916,-5.153 -2.744,-6.985 -1.832,-1.827 -4.159,-2.742 -6.984,-2.742 -2.83,0 -5.115,0.915 -6.861,2.742 -1.746,1.832 -2.619,4.159 -2.619,6.985 v 55.88 c -0.168,0.499 -0.25,1.248 -0.25,2.246 v 58.623 c 0,12.974 3.033,24.779 9.106,35.426 6.068,10.641 14.383,18.998 24.945,25.071 10.561,6.069 22.328,9.106 35.3,9.106 12.972,0 24.737,-3.037 35.299,-9.106"
             style="fill:#368bc5;fill-opacity:1;fill-rule:nonzero;stroke:none"
             id="path20" /></g><g
           id="g22"
           transform="translate(414.6353,604.876)"><path
             d="M 0,0 C -8.318,-7.818 -13.389,-18.13 -15.217,-30.935 H 76.087 C 74.754,-18.13 70.099,-7.818 62.116,0 54.133,7.815 43.906,11.725 31.433,11.725 18.792,11.725 8.314,7.815 0,0 M 64.113,20.332 C 73.592,14.594 80.952,6.65 86.19,-3.493 c 5.239,-10.146 7.858,-21.704 7.858,-34.676 0,-2.661 -0.834,-4.783 -2.494,-6.362 -1.665,-1.582 -3.828,-2.369 -6.487,-2.369 H -15.716 c 1.329,-13.639 6.65,-24.698 15.966,-33.18 9.312,-8.482 20.955,-12.722 34.924,-12.722 5.988,0 12.014,1.037 18.087,3.118 6.069,2.078 10.934,4.697 14.593,7.86 2.16,1.659 4.405,2.493 6.736,2.493 1.827,0 3.657,-0.665 5.489,-1.996 2.159,-1.994 3.242,-4.24 3.242,-6.736 0,-2.163 -0.916,-4.076 -2.743,-5.737 -5.489,-4.658 -12.474,-8.524 -20.956,-11.599 -8.482,-3.08 -16.632,-4.616 -24.448,-4.616 -13.307,0 -25.195,2.952 -35.673,8.858 -10.478,5.901 -18.67,14.131 -24.572,24.694 -5.905,10.56 -8.856,22.492 -8.856,35.799 0,13.471 2.783,25.485 8.357,36.049 5.57,10.559 13.303,18.792 23.2,24.697 9.893,5.901 21.162,8.856 33.803,8.856 12.305,0 23.199,-2.87 32.68,-8.606"
             style="fill:#368bc5;fill-opacity:1;fill-rule:nonzero;stroke:none"
             id="path24" /></g><g
           id="g26"
           transform="translate(637.6562,512.5732)"><path
             d="m 0,0 c 1.661,-1.832 2.495,-4.158 2.495,-6.984 0,-2.662 -0.997,-4.908 -2.994,-6.736 -1.995,-1.832 -4.49,-2.745 -7.484,-2.745 h -5.239 c -8.817,0 -16.713,2.12 -23.698,6.362 -6.986,4.241 -12.435,9.977 -16.34,17.211 -3.909,7.238 -5.863,15.425 -5.863,24.575 v 66.606 h -16.215 c -2.662,0 -4.783,0.788 -6.361,2.371 -1.583,1.578 -2.37,3.53 -2.37,5.861 0,2.497 0.787,4.531 2.37,6.114 1.578,1.578 3.699,2.369 6.361,2.369 h 16.215 v 38.667 c 0,2.826 0.873,5.152 2.62,6.984 1.746,1.829 4.03,2.745 6.86,2.745 2.826,0 5.153,-0.916 6.985,-2.745 1.827,-1.832 2.743,-4.158 2.743,-6.984 v -38.667 h 28.19 c 2.659,0 4.779,-0.791 6.361,-2.369 1.579,-1.583 2.371,-3.617 2.371,-6.114 0,-2.331 -0.792,-4.283 -2.371,-5.861 -1.582,-1.583 -3.702,-2.371 -6.361,-2.371 h -28.19 V 31.683 c 0,-8.483 2.496,-15.429 7.484,-20.831 4.99,-5.407 11.39,-8.107 19.209,-8.107 h 6.737 C -3.827,2.745 -1.665,1.828 0,0"
             style="fill:#368bc5;fill-opacity:1;fill-rule:nonzero;stroke:none"
             id="path28" /></g><g
           id="g30"
           transform="translate(719.23,500.0986)"><path
             d="m 0,0 c -9.48,3.494 -17.131,8.397 -22.951,14.721 -1.664,1.994 -2.495,3.905 -2.495,5.737 0,2.826 1.33,5.321 3.991,7.483 1.997,1.497 4.074,2.246 6.238,2.246 2.826,0 5.238,-1.166 7.234,-3.493 3.992,-4.658 9.269,-8.232 15.841,-10.728 6.568,-2.493 13.845,-3.74 21.828,-3.74 11.64,0 20.37,1.996 26.193,5.986 5.82,3.992 8.814,9.23 8.981,15.717 0,5.986 -2.912,10.976 -8.731,14.967 -5.824,3.993 -15.053,6.985 -27.691,8.981 -16.3,2.657 -28.481,7.272 -36.545,13.846 -8.07,6.567 -12.1,14.506 -12.1,23.824 0,12.138 4.697,21.536 14.095,28.189 9.393,6.651 21.161,9.98 35.299,9.98 10.976,0 20.538,-1.872 28.688,-5.613 8.146,-3.743 14.719,-8.942 19.708,-15.592 1.329,-2.164 1.996,-4.077 1.996,-5.738 0,-2.83 -1.333,-5.076 -3.992,-6.735 -1.166,-0.836 -2.744,-1.247 -4.74,-1.247 -3.493,0 -6.404,1.247 -8.73,3.74 -8.152,9.314 -19.295,13.971 -33.429,13.971 -9.148,0 -16.465,-1.871 -21.953,-5.613 -5.488,-3.743 -8.232,-8.443 -8.232,-14.094 0,-5.987 2.576,-10.772 7.733,-14.347 5.153,-3.576 14.302,-6.447 27.441,-8.605 C 51.471,70.849 64.194,65.983 71.845,59.248 79.493,52.513 83.32,44.157 83.32,34.178 83.32,26.525 81.033,19.709 76.46,13.723 71.885,7.733 65.522,3.076 57.376,-0.247 49.226,-3.576 39.996,-5.237 29.686,-5.237 19.372,-5.237 9.479,-3.491 0,0"
             style="fill:#368bc5;fill-opacity:1;fill-rule:nonzero;stroke:none"
             id="path32" /></g><g
           id="g34"
           transform="translate(870.8999,498.8535)"><path
             d="m 0,0 c -1.832,1.828 -2.744,4.154 -2.744,6.984 v 175.374 c 0,2.826 0.912,5.154 2.744,6.986 1.828,1.828 4.155,2.744 6.985,2.744 2.993,0 5.489,-1.166 7.484,-3.492 L 133.713,31.932 v 150.426 c 0,2.826 0.955,5.154 2.869,6.986 1.911,1.828 4.197,2.744 6.861,2.744 2.826,0 5.152,-0.916 6.984,-2.744 1.828,-1.832 2.743,-4.16 2.743,-6.986 V 6.984 c 0,-2.663 -0.915,-4.95 -2.743,-6.86 -1.832,-1.913 -4.158,-2.869 -6.984,-2.869 -3.329,0 -5.739,1.079 -7.235,3.244 L 16.714,157.163 V 6.984 c 0,-2.663 -0.916,-4.95 -2.744,-6.86 C 12.138,-1.789 9.811,-2.745 6.985,-2.745 4.155,-2.745 1.828,-1.832 0,0"
             style="fill:#368bc5;fill-opacity:1;fill-rule:nonzero;stroke:none"
             id="path36" /></g><g
           id="g38"
           transform="translate(1271.165,627.0781)"><path
             d="m 0,0 c 7.564,-4.658 13.471,-11.269 17.71,-19.833 4.242,-8.566 6.362,-18.505 6.362,-29.811 v -71.845 c 0,-2.83 -0.872,-5.115 -2.619,-6.862 -1.746,-1.746 -4.035,-2.619 -6.86,-2.619 -2.828,0 -5.157,0.873 -6.986,2.619 -1.832,1.747 -2.742,4.032 -2.742,6.862 v 71.845 c 0,11.807 -3.037,21.164 -9.107,28.065 -6.072,6.9 -14.012,10.353 -23.822,10.353 -10.479,0 -18.961,-3.492 -25.447,-10.477 -6.485,-6.984 -9.646,-16.134 -9.48,-27.443 v -0.498 -71.845 c 0,-2.83 -0.872,-5.115 -2.619,-6.862 -1.746,-1.746 -4.033,-2.619 -6.859,-2.619 -2.83,0 -5.157,0.873 -6.987,2.619 -1.832,1.747 -2.742,4.032 -2.742,6.862 v 71.845 c 0,11.807 -3.037,21.164 -9.106,28.065 -6.073,6.9 -14.013,10.353 -23.824,10.353 -10.314,0 -18.796,-3.41 -25.446,-10.227 -6.653,-6.821 -9.977,-15.553 -9.977,-26.196 v -73.84 c 0,-2.83 -0.875,-5.115 -2.622,-6.862 -1.744,-1.746 -4.032,-2.619 -6.858,-2.619 -2.83,0 -5.157,0.873 -6.986,2.619 -1.832,1.747 -2.744,4.032 -2.744,6.862 V -4.241 c 0,2.826 0.912,5.154 2.744,6.986 1.829,1.827 4.156,2.743 6.986,2.743 2.826,0 5.114,-0.916 6.858,-2.743 1.747,-1.832 2.622,-4.16 2.622,-6.986 v -5.488 c 4.654,5.321 10.184,9.437 16.588,12.349 6.4,2.907 13.347,4.364 20.831,4.364 9.143,0 17.375,-2.08 24.697,-6.236 7.316,-4.158 13.136,-9.977 17.461,-17.462 4.823,7.485 11.101,13.304 18.834,17.462 7.734,4.156 16.423,6.236 26.072,6.236 C -16.258,6.984 -7.569,4.654 0,0"
             style="fill:#368bc5;fill-opacity:1;fill-rule:nonzero;stroke:none"
             id="path40" /></g><g
           id="g42"
           transform="translate(1455.6426,519.0596)"><path
             d="m 0,0 c 7.647,4.489 13.634,10.685 17.959,18.585 4.323,7.897 6.488,16.752 6.488,26.567 0,9.98 -2.165,18.918 -6.488,26.819 C 13.634,79.868 7.647,86.066 0,90.557 c -7.652,4.49 -16.301,6.735 -25.945,6.735 -9.481,0 -18.086,-2.245 -25.82,-6.735 -7.733,-4.491 -13.807,-10.689 -18.212,-18.586 -4.408,-7.901 -6.609,-16.839 -6.609,-26.819 0,-9.815 2.201,-18.67 6.609,-26.567 4.405,-7.9 10.479,-14.096 18.212,-18.585 7.734,-4.49 16.339,-6.735 25.82,-6.735 9.644,0 18.293,2.245 25.945,6.735 m -61.494,-15.218 c -10.564,5.988 -18.835,14.258 -24.821,24.822 -5.987,10.559 -8.981,22.409 -8.981,35.548 0,13.136 2.994,25.03 8.981,35.676 5.986,10.641 14.257,18.958 24.821,24.945 10.559,5.988 22.409,8.982 35.549,8.982 13.135,0 24.946,-2.994 35.424,-8.982 10.477,-5.987 18.748,-14.304 24.822,-24.945 6.067,-10.646 9.104,-22.54 9.104,-35.676 0,-13.139 -2.992,-24.989 -8.98,-35.548 C 28.437,-0.96 20.163,-9.23 9.604,-15.218 c -10.564,-5.986 -22.414,-8.98 -35.549,-8.98 -13.14,0 -24.99,2.994 -35.549,8.98"
             style="fill:#368bc5;fill-opacity:1;fill-rule:nonzero;stroke:none"
             id="path44" /></g><g
           id="g46"
           transform="translate(1644.6064,631.3193)"><path
             d="m 0,0 c 4.071,-1.832 6.11,-4.409 6.11,-7.733 0,-0.998 -0.085,-1.746 -0.25,-2.246 -0.665,-2.331 -1.706,-3.909 -3.117,-4.74 -1.414,-0.834 -3.368,-1.247 -5.863,-1.247 -1.495,0 -4.076,0.164 -7.734,0.499 -1.333,0.164 -3.327,0.249 -5.986,0.249 -12.472,0 -22.663,-3.328 -30.558,-9.977 -7.902,-6.655 -11.85,-15.303 -11.85,-25.947 v -74.588 c 0,-2.995 -0.834,-5.326 -2.495,-6.986 -1.664,-1.665 -3.99,-2.495 -6.986,-2.495 -2.994,0 -5.325,0.83 -6.984,2.495 -1.666,1.66 -2.495,3.991 -2.495,6.986 V -8.232 c 0,2.994 0.829,5.321 2.495,6.985 1.659,1.66 3.99,2.494 6.984,2.494 2.996,0 5.322,-0.834 6.986,-2.494 1.661,-1.664 2.495,-3.991 2.495,-6.985 v -10.977 c 4.82,6.984 10.976,12.387 18.459,16.216 7.484,3.823 15.55,5.736 24.198,5.736 C -9.605,2.743 -4.078,1.827 0,0"
             style="fill:#368bc5;fill-opacity:1;fill-rule:nonzero;stroke:none"
             id="path48" /></g><g
           id="g50"
           transform="translate(1724.3115,604.876)"><path
             d="M 0,0 C -8.317,-7.818 -13.389,-18.13 -15.217,-30.935 H 76.086 C 74.754,-18.13 70.1,-7.818 62.117,0 54.134,7.815 43.905,11.725 31.433,11.725 18.792,11.725 8.313,7.815 0,0 m 64.111,20.332 c 9.48,-5.738 16.84,-13.682 22.078,-23.825 5.239,-10.146 7.86,-21.704 7.86,-34.676 0,-2.661 -0.836,-4.783 -2.496,-6.362 -1.665,-1.582 -3.828,-2.369 -6.486,-2.369 H -15.716 c 1.328,-13.639 6.65,-24.698 15.966,-33.18 9.312,-8.482 20.954,-12.722 34.924,-12.722 5.986,0 12.014,1.037 18.086,3.118 6.069,2.078 10.934,4.697 14.594,7.86 2.159,1.659 4.404,2.493 6.735,2.493 1.828,0 3.656,-0.665 5.488,-1.996 2.16,-1.994 3.243,-4.24 3.243,-6.736 0,-2.163 -0.917,-4.076 -2.744,-5.737 -5.488,-4.658 -12.472,-8.524 -20.955,-11.599 -8.481,-3.08 -16.631,-4.616 -24.447,-4.616 -13.307,0 -25.196,2.952 -35.673,8.858 -10.478,5.901 -18.672,14.131 -24.573,24.694 -5.904,10.56 -8.856,22.492 -8.856,35.799 0,13.471 2.783,25.485 8.357,36.049 5.57,10.559 13.303,18.792 23.2,24.697 9.893,5.901 21.163,8.856 33.804,8.856 12.303,0 23.2,-2.87 32.678,-8.606"
             style="fill:#368bc5;fill-opacity:1;fill-rule:nonzero;stroke:none"
             id="path52" /></g><g
           id="g54"
           transform="translate(341.5933,424.3555)"><path
             d="m 0,0 c 2.497,1.541 5.236,2.322 8.14,2.322 2.153,0 4.05,-0.28 5.64,-0.831 1.552,-0.539 3.012,-1.419 4.342,-2.612 1.146,-1.028 2.94,-1.332 4.393,-0.507 0.412,0.238 0.748,0.553 0.991,0.927 0.316,0.236 0.584,0.53 0.792,0.87 0.328,0.534 0.495,1.131 0.495,1.769 0,1.145 -0.485,2.127 -1.273,2.696 -2.286,1.911 -4.698,3.326 -7.17,4.206 -2.47,0.878 -5.233,1.323 -8.21,1.323 -4.451,0 -8.593,-1.142 -12.313,-3.394 -3.696,-2.242 -6.662,-5.314 -8.819,-9.132 -2.16,-3.818 -3.254,-8.024 -3.254,-12.498 0,-4.521 1.106,-8.747 3.285,-12.562 2.174,-3.813 5.151,-6.885 8.847,-9.127 3.715,-2.255 7.838,-3.397 12.254,-3.397 6.281,0 11.475,1.839 15.553,5.578 0.721,0.791 1.1,1.765 1.1,2.819 0,1.139 -0.409,2.134 -1.187,2.879 -1.337,1.282 -3.301,1.574 -5.112,0.251 -3.119,-2.478 -6.504,-3.684 -10.354,-3.684 -2.953,0 -5.714,0.772 -8.205,2.298 -2.517,1.537 -4.538,3.648 -6.007,6.274 -1.47,2.625 -2.217,5.541 -2.217,8.671 0,3.046 0.754,5.92 2.242,8.544 C -4.556,-3.686 -2.521,-1.561 0,0"
             style="fill:#4c4c4c;fill-opacity:1;fill-rule:nonzero;stroke:none"
             id="path56" /></g><g
           id="g58"
           transform="translate(421.6172,432.8027)"><path
             d="m 0,0 c -0.792,-0.762 -1.211,-1.766 -1.211,-2.904 v -16.368 h -24.833 v 16.368 c 0,1.125 -0.4,2.12 -1.16,2.883 -1.488,1.48 -4.104,1.547 -5.702,0.021 -0.791,-0.762 -1.211,-1.766 -1.211,-2.904 v -40.871 c 0,-1.089 0.411,-2.076 1.187,-2.852 1.588,-1.589 4.269,-1.52 5.755,0.028 0.74,0.773 1.131,1.748 1.131,2.824 v 16.895 h 24.833 v -16.895 c 0,-1.089 0.411,-2.076 1.187,-2.852 0.775,-0.775 1.76,-1.185 2.851,-1.185 1.142,0 2.146,0.419 2.906,1.213 0.74,0.773 1.13,1.748 1.13,2.824 v 40.871 c 0,1.125 -0.399,2.12 -1.159,2.883 C 4.218,1.459 1.6,1.526 0,0"
             style="fill:#4c4c4c;fill-opacity:1;fill-rule:nonzero;stroke:none"
             id="path60" /></g><g
           id="g62"
           transform="translate(491.396,409.4941)"><path
             d="m 0,0 c 0,-3.243 -0.745,-6.209 -2.215,-8.814 -1.464,-2.597 -3.504,-4.674 -6.067,-6.172 -2.557,-1.498 -5.474,-2.257 -8.67,-2.257 -3.235,0 -6.171,0.759 -8.73,2.257 -2.559,1.496 -4.601,3.573 -6.066,6.173 -1.469,2.606 -2.213,5.571 -2.213,8.813 0,3.2 0.744,6.146 2.213,8.753 1.465,2.598 3.506,4.674 6.066,6.173 2.563,1.498 5.5,2.258 8.73,2.258 3.191,0 6.108,-0.76 8.67,-2.258 2.563,-1.5 4.605,-3.577 6.067,-6.173 C -0.745,6.146 0,3.2 0,0 m -4.188,21.77 c -3.803,2.16 -8.097,3.254 -12.764,3.254 -4.709,0 -9.015,-1.094 -12.797,-3.256 -3.793,-2.168 -6.803,-5.189 -8.947,-8.98 C -40.835,9.006 -41.92,4.703 -41.92,0 c 0,-4.703 1.083,-9.017 3.222,-12.816 2.143,-3.812 5.155,-6.842 8.949,-9.013 3.782,-2.161 8.088,-3.257 12.797,-3.257 4.667,0 8.961,1.096 12.764,3.256 3.813,2.167 6.835,5.2 8.98,9.014 2.139,3.796 3.222,8.109 3.222,12.816 0,4.707 -1.085,9.009 -3.224,12.788 -2.146,3.794 -5.166,6.815 -8.978,8.982"
             style="fill:#4c4c4c;fill-opacity:1;fill-rule:nonzero;stroke:none"
             id="path64" /></g><g
           id="g66"
           transform="translate(521.5601,432.8027)"><path
             d="m 0,0 c -0.792,-0.762 -1.211,-1.766 -1.211,-2.904 v -40.871 c 0,-1.089 0.411,-2.076 1.187,-2.852 0.775,-0.775 1.76,-1.185 2.849,-1.185 1.142,0 2.148,0.419 2.91,1.214 0.738,0.775 1.128,1.751 1.128,2.823 v 40.871 c 0,1.121 -0.399,2.115 -1.159,2.883 C 4.219,1.459 1.6,1.528 0,0"
             style="fill:#4c4c4c;fill-opacity:1;fill-rule:nonzero;stroke:none"
             id="path68" /></g><g
           id="g70"
           transform="translate(565.666,424.3555)"><path
             d="m 0,0 c 2.497,1.541 5.235,2.322 8.14,2.322 2.151,0 4.048,-0.28 5.638,-0.831 1.554,-0.541 3.014,-1.42 4.342,-2.612 1.148,-1.032 2.965,-1.324 4.387,-0.508 0.417,0.238 0.754,0.553 0.999,0.928 0.313,0.236 0.582,0.532 0.795,0.878 0.326,0.535 0.492,1.128 0.492,1.761 0,1.145 -0.485,2.127 -1.273,2.696 -2.288,1.911 -4.702,3.326 -7.172,4.206 -2.468,0.878 -5.229,1.323 -8.208,1.323 -4.453,0 -8.596,-1.142 -12.313,-3.394 -3.698,-2.244 -6.666,-5.316 -8.823,-9.132 -2.158,-3.821 -3.252,-8.027 -3.252,-12.498 0,-4.521 1.106,-8.747 3.287,-12.562 2.174,-3.813 5.151,-6.885 8.845,-9.127 v -0.002 c 3.717,-2.253 7.84,-3.395 12.256,-3.395 6.281,0 11.475,1.839 15.553,5.578 0.72,0.791 1.1,1.765 1.1,2.819 0,1.139 -0.409,2.134 -1.189,2.883 -1.344,1.276 -3.301,1.568 -5.11,0.248 -3.119,-2.479 -6.506,-3.685 -10.354,-3.685 -2.953,0 -5.714,0.772 -8.206,2.298 -2.516,1.537 -4.537,3.648 -6.008,6.272 -1.47,2.627 -2.215,5.543 -2.215,8.673 0,3.048 0.753,5.923 2.241,8.544 C -4.558,-3.688 -2.523,-1.562 0,0"
             style="fill:#4c4c4c;fill-opacity:1;fill-rule:nonzero;stroke:none"
             id="path72" /></g><g
           id="g74"
           transform="translate(642.8765,426.0381)"><path
             d="m 0,0 c 1.108,0 2.093,0.381 2.85,1.101 0.777,0.742 1.187,1.715 1.187,2.82 0,1.082 -0.4,2.055 -1.163,2.825 C 2.113,7.501 1.118,7.9 0,7.9 h -27.27 c -1.069,0 -2.043,-0.39 -2.825,-1.135 -0.791,-0.762 -1.211,-1.766 -1.211,-2.905 v -40.871 c 0,-1.089 0.411,-2.075 1.187,-2.851 0.776,-0.776 1.761,-1.185 2.849,-1.185 H 0 c 1.123,0 2.119,0.399 2.882,1.159 0.755,0.759 1.155,1.735 1.155,2.82 0,1.099 -0.41,2.074 -1.189,2.822 -0.755,0.719 -1.74,1.099 -2.848,1.099 h -23.231 v 12.68 h 16.428 c 1.07,0 2.046,0.391 2.822,1.131 0.795,0.762 1.215,1.746 1.215,2.849 0,1.085 -0.4,2.059 -1.158,2.82 -0.759,0.759 -1.754,1.159 -2.879,1.159 H -23.231 V 0 Z"
             style="fill:#4c4c4c;fill-opacity:1;fill-rule:nonzero;stroke:none"
             id="path76" /></g><g
           id="g78"
           transform="translate(713.1084,424.3555)"><path
             d="m 0,0 c 2.497,1.541 5.235,2.322 8.14,2.322 2.151,0 4.048,-0.28 5.64,-0.831 1.552,-0.541 3.012,-1.419 4.34,-2.612 1.15,-1.032 2.965,-1.324 4.387,-0.508 0.419,0.238 0.756,0.554 1.001,0.929 0.313,0.237 0.58,0.531 0.793,0.877 0.326,0.535 0.492,1.128 0.492,1.761 0,1.145 -0.485,2.127 -1.273,2.696 -2.284,1.91 -4.696,3.325 -7.171,4.206 -2.469,0.878 -5.232,1.323 -8.209,1.323 -4.452,0 -8.596,-1.142 -12.313,-3.394 -3.694,-2.242 -6.662,-5.314 -8.823,-9.132 -2.156,-3.82 -3.25,-8.025 -3.25,-12.498 0,-4.524 1.106,-8.75 3.285,-12.562 2.174,-3.813 5.149,-6.885 8.845,-9.127 v -0.002 c 3.717,-2.253 7.84,-3.395 12.256,-3.395 6.281,0 11.475,1.839 15.553,5.578 0.72,0.791 1.1,1.765 1.1,2.819 0,1.139 -0.409,2.134 -1.189,2.883 -1.344,1.276 -3.301,1.568 -5.11,0.248 -3.119,-2.479 -6.506,-3.685 -10.354,-3.685 -2.953,0 -5.714,0.772 -8.206,2.298 -2.516,1.537 -4.537,3.648 -6.008,6.272 -1.47,2.627 -2.215,5.543 -2.215,8.673 0,3.046 0.754,5.92 2.241,8.544 C -4.557,-3.686 -2.521,-1.561 0,0"
             style="fill:#4c4c4c;fill-opacity:1;fill-rule:nonzero;stroke:none"
             id="path80" /></g><g
           id="g82"
           transform="translate(798.7236,409.4941)"><path
             d="m 0,0 c 0,-3.242 -0.745,-6.207 -2.213,-8.813 -1.466,-2.6 -3.508,-4.677 -6.067,-6.173 -2.559,-1.498 -5.476,-2.257 -8.673,-2.257 -3.233,0 -6.168,0.759 -8.727,2.257 -2.561,1.498 -4.603,3.575 -6.069,6.173 -1.468,2.606 -2.213,5.571 -2.213,8.813 0,3.2 0.745,6.146 2.213,8.753 1.464,2.596 3.506,4.673 6.069,6.173 2.562,1.498 5.5,2.258 8.727,2.258 3.192,0 6.11,-0.76 8.673,-2.258 2.561,-1.499 4.601,-3.575 6.067,-6.171 C -0.745,6.146 0,3.2 0,0 m -4.187,21.77 c -3.803,2.16 -8.099,3.254 -12.766,3.254 -4.708,0 -9.014,-1.094 -12.796,-3.256 -3.791,-2.167 -6.801,-5.189 -8.945,-8.98 C -40.833,9.009 -41.919,4.707 -41.919,0 c 0,-4.707 1.084,-9.02 3.223,-12.816 2.144,-3.812 5.154,-6.844 8.947,-9.013 3.782,-2.161 8.088,-3.257 12.796,-3.257 4.667,0 8.963,1.096 12.766,3.256 3.815,2.168 6.836,5.2 8.98,9.014 2.139,3.799 3.223,8.113 3.223,12.816 0,4.703 -1.086,9.006 -3.224,12.788 -2.147,3.793 -5.167,6.815 -8.979,8.982"
             style="fill:#4c4c4c;fill-opacity:1;fill-rule:nonzero;stroke:none"
             id="path84" /></g><g
           id="g86"
           transform="translate(875.4624,432.7822)"><path
             d="m 0,0 c -0.76,0.757 -1.735,1.156 -2.818,1.156 -1.509,0 -2.772,-0.719 -3.622,-2.151 l -16.685,-33.792 -17.071,33.918 c -0.781,1.306 -2.044,2.025 -3.553,2.025 -1.069,0 -2.045,-0.39 -2.826,-1.135 -0.792,-0.762 -1.212,-1.766 -1.212,-2.905 v -40.871 c 0,-1.089 0.412,-2.075 1.187,-2.851 1.589,-1.588 4.272,-1.522 5.758,0.028 0.739,0.772 1.13,1.748 1.13,2.823 v 24.89 l 12.728,-25.451 c 0.715,-1.566 2.03,-2.428 3.701,-2.428 1.456,0 2.69,0.685 3.473,1.93 0.035,0.053 0.065,0.109 0.093,0.166 l 12.804,26.162 v -25.269 c 0,-1.089 0.411,-2.075 1.187,-2.851 0.776,-0.776 1.781,-1.185 2.908,-1.185 1.102,0 2.087,0.419 2.847,1.213 0.74,0.773 1.132,1.75 1.132,2.823 v 40.871 c 0,1.123 -0.399,2.118 -1.156,2.879 C 0.003,-0.003 0.002,-0.002 0,0"
             style="fill:#4c4c4c;fill-opacity:1;fill-rule:nonzero;stroke:none"
             id="path88" /></g><g
           id="g90"
           transform="translate(927.5288,433.9385)"><path
             d="m 0,0 h -27.27 c -1.069,0 -2.043,-0.391 -2.825,-1.136 -0.791,-0.761 -1.211,-1.765 -1.211,-2.904 v -40.871 c 0,-1.089 0.411,-2.075 1.187,-2.852 0.776,-0.775 1.761,-1.184 2.849,-1.184 1.139,0 2.145,0.418 2.91,1.214 0.738,0.774 1.127,1.749 1.127,2.822 v 16.544 h 16.43 c 1.123,0 2.119,0.399 2.879,1.158 0.757,0.757 1.158,1.732 1.158,2.821 0,1.143 -0.41,2.138 -1.189,2.882 -0.755,0.718 -1.74,1.098 -2.848,1.098 h -16.43 V -7.9 H 0 c 1.113,0 2.1,0.381 2.846,1.097 0.779,0.741 1.191,1.718 1.191,2.824 0,1.083 -0.401,2.057 -1.16,2.82 C 2.119,-0.401 1.123,0 0,0"
             style="fill:#4c4c4c;fill-opacity:1;fill-rule:nonzero;stroke:none"
             id="path92" /></g><g
           id="g94"
           transform="translate(990.9907,409.4941)"><path
             d="m 0,0 c 0,-3.245 -0.745,-6.21 -2.213,-8.813 -1.466,-2.6 -3.508,-4.677 -6.067,-6.173 -2.559,-1.498 -5.476,-2.257 -8.671,-2.257 -3.234,0 -6.17,0.759 -8.729,2.257 -2.559,1.496 -4.601,3.573 -6.067,6.173 -1.47,2.604 -2.214,5.57 -2.214,8.813 0,3.2 0.744,6.146 2.214,8.753 1.466,2.598 3.506,4.674 6.067,6.173 2.563,1.498 5.5,2.258 8.729,2.258 3.19,0 6.109,-0.76 8.671,-2.258 2.561,-1.499 4.601,-3.575 6.067,-6.173 C -0.745,6.147 0,3.203 0,0 m -4.187,21.77 c -3.803,2.16 -8.097,3.254 -12.764,3.254 -4.708,0 -9.014,-1.094 -12.796,-3.256 C -33.54,19.6 -36.55,16.579 -38.694,12.788 -40.833,9.006 -41.918,4.703 -41.918,0 c 0,-4.703 1.083,-9.017 3.222,-12.816 2.143,-3.812 5.154,-6.842 8.949,-9.013 3.782,-2.161 8.088,-3.257 12.796,-3.257 4.667,0 8.961,1.096 12.764,3.256 3.814,2.167 6.836,5.2 8.98,9.014 2.139,3.798 3.225,8.111 3.225,12.816 0,4.705 -1.086,9.007 -3.226,12.788 -2.146,3.794 -5.167,6.815 -8.979,8.982"
             style="fill:#4c4c4c;fill-opacity:1;fill-rule:nonzero;stroke:none"
             id="path96" /></g><g
           id="g98"
           transform="translate(1042.2764,414.3232)"><path
             d="m 0,0 c -0.703,-1.125 -1.671,-1.988 -2.96,-2.642 -1.329,-0.673 -2.789,-1.001 -4.463,-1.001 h -6.836 v 15.358 h 6.836 c 1.676,0 3.181,-0.342 4.468,-1.016 C -1.688,10.03 -0.728,9.127 -0.021,7.931 0.694,6.724 1.042,5.383 1.042,3.833 1.042,2.376 0.701,1.123 0,0 m 0.874,-9.655 c 2.172,1.102 3.976,2.647 5.381,4.61 1.821,2.543 2.744,5.529 2.744,8.878 0,3.02 -0.719,5.768 -2.136,8.167 -1.422,2.407 -3.406,4.301 -5.892,5.632 -2.462,1.316 -5.285,1.983 -8.394,1.983 h -10.872 c -1.121,0 -2.117,-0.399 -2.882,-1.161 -0.756,-0.759 -1.154,-1.754 -1.154,-2.879 v -40.871 c 0,-1.127 0.4,-2.122 1.157,-2.879 1.512,-1.513 4.234,-1.518 5.763,0.002 0.753,0.759 1.152,1.752 1.152,2.877 v 13.756 h 6.836 l 9.934,-15.766 c 0.376,-0.631 0.846,-1.125 1.395,-1.466 0.593,-0.373 1.302,-0.56 2.102,-0.56 1.111,0 2.055,0.309 2.812,0.926 0.84,0.692 1.284,1.648 1.284,2.762 0,0.795 -0.253,1.608 -0.794,2.507 z"
             style="fill:#4c4c4c;fill-opacity:1;fill-rule:nonzero;stroke:none"
             id="path100" /></g><g
           id="g102"
           transform="translate(1104.8223,432.8428)"><path
             d="m 0,0 c -0.723,0.717 -1.678,1.096 -2.76,1.096 h -32.15 c -1.083,0 -2.037,-0.38 -2.765,-1.105 -0.717,-0.72 -1.097,-1.674 -1.097,-2.759 0,-1.048 0.38,-1.984 1.097,-2.701 0.719,-0.721 1.675,-1.104 2.765,-1.104 h 12.011 v -37.242 c 0,-1.094 0.413,-2.081 1.183,-2.846 0.773,-0.779 1.759,-1.191 2.853,-1.191 1.138,0 2.144,0.418 2.91,1.214 0.737,0.775 1.126,1.749 1.126,2.823 V -6.573 H -2.76 c 1.089,0 2.045,0.381 2.765,1.101 0.719,0.719 1.099,1.654 1.099,2.704 0,1.085 -0.378,2.04 -1.095,2.759 z"
             style="fill:#4c4c4c;fill-opacity:1;fill-rule:nonzero;stroke:none"
             id="path104" /></g><g
           id="g106"
           transform="translate(1170.3789,424.3555)"><path
             d="m 0,0 c 2.494,1.541 5.233,2.322 8.14,2.322 2.151,0 4.047,-0.28 5.637,-0.831 1.55,-0.539 3.012,-1.419 4.343,-2.612 1.148,-1.032 2.965,-1.324 4.387,-0.508 0.42,0.239 0.757,0.554 1.002,0.931 0.309,0.235 0.576,0.525 0.788,0.867 0.328,0.532 0.494,1.127 0.494,1.769 0,1.146 -0.487,2.131 -1.273,2.695 -2.283,1.911 -4.693,3.326 -7.169,4.207 -2.471,0.878 -5.234,1.323 -8.209,1.323 -4.453,0 -8.595,-1.142 -12.315,-3.396 -3.696,-2.242 -6.665,-5.314 -8.821,-9.13 -2.158,-3.821 -3.252,-8.027 -3.252,-12.498 0,-4.519 1.104,-8.745 3.285,-12.562 2.175,-3.813 5.151,-6.886 8.847,-9.127 3.715,-2.255 7.838,-3.397 12.256,-3.397 6.281,0 11.474,1.839 15.548,5.576 0.721,0.788 1.103,1.764 1.103,2.821 0,1.143 -0.409,2.138 -1.187,2.879 -1.333,1.28 -3.29,1.574 -5.113,0.252 -3.119,-2.479 -6.505,-3.685 -10.351,-3.685 -2.953,0 -5.714,0.772 -8.206,2.298 -2.516,1.537 -4.538,3.648 -6.008,6.272 -1.471,2.627 -2.215,5.543 -2.215,8.673 0,3.048 0.753,5.923 2.241,8.544 C -4.559,-3.686 -2.523,-1.561 0,0"
             style="fill:#4c4c4c;fill-opacity:1;fill-rule:nonzero;stroke:none"
             id="path108" /></g><g
           id="g110"
           transform="translate(1255.9932,409.4941)"><path
             d="m 0,0 c 0,-3.242 -0.744,-6.207 -2.213,-8.813 -1.466,-2.598 -3.506,-4.675 -6.066,-6.173 -2.56,-1.498 -5.476,-2.257 -8.673,-2.257 -3.235,0 -6.17,0.759 -8.728,2.257 -2.562,1.498 -4.602,3.575 -6.066,6.173 -1.471,2.608 -2.215,5.573 -2.215,8.813 0,3.198 0.744,6.143 2.215,8.753 1.462,2.596 3.504,4.673 6.066,6.173 2.563,1.498 5.498,2.258 8.728,2.258 3.191,0 6.11,-0.76 8.673,-2.258 2.56,-1.5 4.602,-3.577 6.066,-6.171 C -0.744,6.146 0,3.2 0,0 m -4.187,21.77 c -3.802,2.16 -8.098,3.254 -12.765,3.254 -4.708,0 -9.015,-1.094 -12.795,-3.256 C -33.54,19.6 -36.55,16.579 -38.694,12.788 -40.833,9.009 -41.918,4.707 -41.918,0 c 0,-4.707 1.083,-9.02 3.223,-12.816 2.142,-3.812 5.154,-6.842 8.948,-9.013 3.78,-2.161 8.087,-3.257 12.795,-3.257 4.667,0 8.963,1.096 12.765,3.256 3.816,2.168 6.836,5.2 8.981,9.014 2.139,3.799 3.222,8.113 3.222,12.816 0,4.703 -1.085,9.006 -3.224,12.788 -2.146,3.793 -5.167,6.815 -8.979,8.982"
             style="fill:#4c4c4c;fill-opacity:1;fill-rule:nonzero;stroke:none"
             id="path112" /></g><g
           id="g114"
           transform="translate(1332.7363,432.7822)"><path
             d="m 0,0 c -0.761,0.757 -1.735,1.156 -2.82,1.156 -1.509,0 -2.77,-0.719 -3.62,-2.151 l -16.686,-33.792 -17.073,33.918 c -0.781,1.306 -2.045,2.025 -3.553,2.025 -1.071,0 -2.046,-0.392 -2.82,-1.132 -0.797,-0.761 -1.216,-1.767 -1.216,-2.908 v -40.871 c 0,-1.091 0.411,-2.077 1.186,-2.849 1.581,-1.588 4.261,-1.533 5.759,0.027 0.739,0.774 1.127,1.749 1.127,2.822 v 24.89 l 12.73,-25.451 c 0.715,-1.566 2.03,-2.428 3.701,-2.428 1.456,0 2.69,0.685 3.473,1.93 0.035,0.053 0.065,0.109 0.093,0.166 l 12.804,26.162 v -25.269 c 0,-1.089 0.411,-2.075 1.185,-2.849 0.772,-0.776 1.78,-1.187 2.91,-1.187 1.104,0 2.089,0.419 2.849,1.213 0.74,0.772 1.13,1.748 1.13,2.823 v 40.871 c 0,1.125 -0.399,2.12 -1.154,2.879 C 0.003,-0.003 0.001,-0.002 0,0"
             style="fill:#4c4c4c;fill-opacity:1;fill-rule:nonzero;stroke:none"
             id="path116" /></g><g
           id="g118"
           transform="translate(1404.8877,432.7822)"><path
             d="m 0,0 c -0.761,0.757 -1.735,1.156 -2.82,1.156 -1.509,0 -2.77,-0.719 -3.62,-2.151 l -16.686,-33.792 -17.073,33.918 c -0.781,1.306 -2.045,2.025 -3.553,2.025 -1.075,0 -2.05,-0.392 -2.82,-1.132 -0.796,-0.761 -1.216,-1.767 -1.216,-2.908 v -40.871 c 0,-1.091 0.411,-2.077 1.184,-2.846 1.575,-1.591 4.26,-1.538 5.761,0.024 0.739,0.774 1.127,1.749 1.127,2.822 v 24.89 l 12.728,-25.448 c 0.714,-1.568 2.028,-2.431 3.703,-2.431 1.456,0 2.69,0.685 3.473,1.93 0.035,0.053 0.065,0.109 0.093,0.166 l 12.804,26.162 v -25.269 c 0,-1.089 0.411,-2.075 1.186,-2.849 0.771,-0.776 1.779,-1.187 2.909,-1.187 1.104,0 2.089,0.419 2.851,1.214 0.738,0.774 1.128,1.751 1.128,2.822 v 40.871 c 0,1.121 -0.399,2.115 -1.152,2.875 C 0.005,-0.005 0.001,-0.003 0,0"
             style="fill:#4c4c4c;fill-opacity:1;fill-rule:nonzero;stroke:none"
             id="path120" /></g><g
           id="g122"
           transform="translate(1461.8594,432.7773)"><path
             d="m 0,0 c -0.755,-0.759 -1.154,-1.754 -1.154,-2.879 v -28.139 c 0,-1.916 -0.468,-3.568 -1.433,-5.053 -0.971,-1.502 -2.291,-2.65 -4.029,-3.503 -1.766,-0.864 -3.832,-1.303 -6.143,-1.303 -2.351,0 -4.46,0.44 -6.265,1.309 -1.777,0.854 -3.11,1.999 -4.08,3.499 -0.963,1.483 -1.432,3.135 -1.432,5.051 v 28.139 c 0,1.121 -0.398,2.117 -1.161,2.886 -1.523,1.512 -4.23,1.516 -5.757,-0.007 -0.756,-0.759 -1.154,-1.754 -1.154,-2.879 v -28.139 c 0,-3.389 0.863,-6.475 2.57,-9.171 1.702,-2.692 4.104,-4.816 7.137,-6.31 2.982,-1.471 6.394,-2.217 10.142,-2.217 3.712,0 7.088,0.746 10.037,2.22 2.99,1.497 5.369,3.617 7.073,6.307 1.704,2.697 2.567,5.783 2.567,9.171 v 28.139 c 0,1.12 -0.397,2.113 -1.161,2.886 C 4.235,1.519 1.527,1.523 0,0"
             style="fill:#4c4c4c;fill-opacity:1;fill-rule:nonzero;stroke:none"
             id="path124" /></g><g
           id="g126"
           transform="translate(1524.9951,432.8027)"><path
             d="m 0,0 c -0.792,-0.76 -1.21,-1.766 -1.21,-2.904 v -29.812 l -24.678,32.417 c -1.543,1.803 -4.375,1.861 -5.971,0.274 -0.755,-0.759 -1.155,-1.754 -1.155,-2.879 v -40.871 c 0,-1.127 0.402,-2.122 1.159,-2.879 1.521,-1.523 4.265,-1.528 5.788,0.056 0.738,0.775 1.127,1.749 1.127,2.823 v 29.762 l 24.627,-32.284 c 0.48,-0.69 1.414,-1.515 3.139,-1.515 1.143,0 2.147,0.419 2.906,1.213 0.741,0.773 1.13,1.748 1.13,2.824 v 40.871 c 0,1.125 -0.398,2.12 -1.159,2.883 C 4.218,1.459 1.598,1.526 0,0"
             style="fill:#4c4c4c;fill-opacity:1;fill-rule:nonzero;stroke:none"
             id="path128" /></g><g
           id="g130"
           transform="translate(1556.2803,432.8066)"><path
             d="m 0,0 c -0.797,-0.762 -1.217,-1.768 -1.217,-2.908 v -40.871 c 0,-1.091 0.411,-2.075 1.189,-2.852 0.774,-0.775 1.757,-1.184 2.847,-1.184 1.139,0 2.145,0.418 2.91,1.213 0.738,0.775 1.128,1.751 1.128,2.823 v 40.871 c 0,1.121 -0.399,2.115 -1.163,2.886 C 4.209,1.455 1.584,1.51 0,0"
             style="fill:#4c4c4c;fill-opacity:1;fill-rule:nonzero;stroke:none"
             id="path132" /></g><g
           id="g134"
           transform="translate(1620.1738,432.8408)"><path
             d="m 0,0 c -0.721,0.718 -1.675,1.098 -2.76,1.098 h -32.15 c -1.087,0 -2.041,-0.38 -2.762,-1.101 -0.721,-0.721 -1.1,-1.676 -1.1,-2.763 0,-1.052 0.381,-1.989 1.095,-2.699 0.717,-0.723 1.673,-1.106 2.767,-1.106 h 12.011 v -37.242 c 0,-1.092 0.411,-2.08 1.184,-2.85 0.773,-0.775 1.76,-1.187 2.852,-1.187 1.138,0 2.144,0.418 2.913,1.218 0.734,0.775 1.123,1.749 1.123,2.819 V -6.571 H -2.76 c 1.091,0 2.048,0.383 2.76,1.097 0.722,0.719 1.104,1.656 1.104,2.708 0,1.087 -0.38,2.042 -1.101,2.763 C 0.003,-0.001 0.002,-0.001 0,0"
             style="fill:#4c4c4c;fill-opacity:1;fill-rule:nonzero;stroke:none"
             id="path136" /></g><g
           id="g138"
           transform="translate(1673.6436,432.7432)"><path
             d="M 0,0 C 0,0.001 -0.002,0.001 -0.002,0.003 -0.711,0.782 -1.655,1.195 -2.737,1.195 -3.536,1.195 -4.244,1.007 -4.84,0.632 -5.347,0.315 -5.812,-0.137 -6.335,-0.861 L -19.249,-21.643 -32.281,-0.66 c -0.423,0.599 -0.872,1.038 -1.38,1.342 -1.381,0.828 -3.487,0.639 -4.777,-0.589 -0.777,-0.741 -1.186,-1.697 -1.186,-2.761 0,-0.795 0.245,-1.597 0.737,-2.396 l 15.541,-24.628 v -14.024 c 0,-1.087 0.411,-2.073 1.187,-2.849 0.772,-0.776 1.76,-1.187 2.849,-1.187 1.143,0 2.148,0.419 2.909,1.213 0.739,0.773 1.131,1.75 1.131,2.823 v 14.022 L 0.322,-5.073 C 0.777,-4.36 1.009,-3.552 1.009,-2.668 1.009,-1.654 0.659,-0.731 0,0"
             style="fill:#4c4c4c;fill-opacity:1;fill-rule:nonzero;stroke:none"
             id="path140" /></g><g
           id="g142"
           transform="translate(1327.2158,1332.4746)"><path
             d="m 0,0 c 4.309,-4.927 7.968,-10.194 11.27,-15.673 3.293,-5.481 6.177,-11.195 8.612,-17.121 2.426,-5.927 4.406,-12.074 5.661,-18.442 1.244,-6.357 1.814,-12.958 1.083,-19.585 -0.685,-6.607 -2.799,-13.236 -6.483,-18.946 -3.668,-5.724 -8.826,-10.333 -14.48,-13.709 -5.669,-3.402 -11.813,-5.685 -18.019,-7.286 -6.219,-1.58 -12.489,-2.633 -18.96,-2.936 -6.432,-0.25 -13.14,0.255 -19.461,2.812 -3.14,1.271 -6.135,3.095 -8.655,5.465 -2.527,2.361 -4.547,5.233 -5.982,8.298 -2.882,6.173 -3.641,12.848 -3.542,19.248 0.115,6.435 1.124,12.728 2.527,18.873 0.712,3.072 1.533,6.109 2.438,9.115 0.889,2.945 1.629,5.784 2.115,8.757 0.972,5.905 1.011,11.96 0.196,17.922 -0.815,5.964 -2.453,11.832 -4.72,17.469 -2.23,5.685 -5.153,10.986 -8.143,16.511 -0.401,0.74 -0.126,1.665 0.614,2.065 0.731,0.396 1.642,0.133 2.05,-0.587 l 0.03,-0.053 c 3.009,-5.304 6.197,-10.819 8.609,-16.637 2.469,-5.805 4.317,-11.924 5.304,-18.219 0.988,-6.291 1.08,-12.759 0.165,-19.103 -0.449,-3.155 -1.211,-6.336 -2.058,-9.335 -0.824,-2.942 -1.564,-5.903 -2.194,-8.878 -1.242,-5.947 -2.078,-11.976 -2.069,-17.939 0.01,-5.936 0.882,-11.884 3.376,-16.94 2.449,-5.074 6.734,-8.895 11.997,-10.855 5.249,-2.023 11.204,-2.424 17.095,-2.074 5.903,0.379 11.893,1.511 17.651,3.07 5.751,1.581 11.3,3.774 16.214,6.838 4.911,3.047 9.149,7.007 12.104,11.783 2.961,4.771 4.649,10.28 5.151,15.993 0.541,5.713 -0.041,11.596 -1.268,17.359 -1.234,5.773 -3.157,11.446 -5.512,16.942 -2.362,5.496 -5.163,10.829 -8.334,15.915 -3.168,5.078 -6.699,9.963 -10.622,14.3 l -0.017,0.019 C -7.808,-3.85 -7.675,-1.202 -5.96,0.349 -4.245,1.9 -1.598,1.768 -0.046,0.053 -0.035,0.041 -0.011,0.012 0,0"
             style="fill:#4c4c4c;fill-opacity:1;fill-rule:nonzero;stroke:none"
             id="path144" /></g><g
           id="g146"
           transform="translate(1145.8203,1030.1587)"><path
             d="m 0,0 c -18.307,-0.001 -39.217,3.684 -61.73,11.094 -1.831,0.602 -2.827,2.574 -2.224,4.405 0.603,1.831 2.578,2.826 4.404,2.224 47.154,-15.522 86.485,-14.265 107.92,3.44 9.085,7.504 9.534,10.672 9.307,11.686 -0.927,4.122 -16.471,8.059 -24.821,10.174 -1.867,0.475 -2.999,2.372 -2.525,4.24 0.473,1.866 2.371,2.997 4.239,2.526 C 51.513,45.496 62.748,42.104 64.484,34.38 65.676,29.085 62.186,23.523 52.813,15.782 40.105,5.285 21.921,0.001 0,0"
             style="fill:#4c4c4c;fill-opacity:1;fill-rule:nonzero;stroke:none"
             id="path148" /></g><g
           id="g150"
           transform="translate(1177.5527,1326.4297)"><path
             d="m 0,0 c 0,-4.917 -3.986,-8.903 -8.903,-8.903 -4.917,0 -8.904,3.986 -8.904,8.903 0,4.917 3.987,8.904 8.904,8.904 C -3.986,8.904 0,4.917 0,0"
             style="fill:#4c4c4c;fill-opacity:1;fill-rule:nonzero;stroke:none"
             id="path152" /></g><g
           id="g154"
           transform="translate(1289.2559,1123.8687)"><path
             d="m 0,0 c -0.363,-3.74 -3.688,-6.478 -7.429,-6.114 -3.74,0.363 -6.477,3.689 -6.114,7.429 0.363,3.74 3.689,6.477 7.429,6.114 C -2.374,7.066 0.363,3.74 0,0"
             style="fill:#4c4c4c;fill-opacity:1;fill-rule:nonzero;stroke:none"
             id="path156" /></g><g
           id="g158"
           transform="translate(1002.3232,1096.5381)"><path
             d="m 0,0 c -0.563,-2.968 -3.427,-4.917 -6.395,-4.354 -2.968,0.564 -4.917,3.427 -4.354,6.396 0.564,2.967 3.427,4.916 6.395,4.353 C -1.386,5.832 0.563,2.968 0,0"
             style="fill:#4c4c4c;fill-opacity:1;fill-rule:nonzero;stroke:none"
             id="path160" /></g><g
           id="g162"
           transform="translate(1446.5283,1097.373)"><path
             d="m 0,0 c -0.359,0 -0.724,0.054 -1.085,0.166 -1.936,0.599 -3.018,2.651 -2.418,4.585 34.516,111.497 22.589,187.217 6.505,231.104 -17.387,47.448 -43.239,68.925 -43.5,69.138 -1.334,1.089 -1.732,2.963 -0.954,4.499 0.781,1.536 2.528,2.329 4.189,1.891 29.042,-7.543 52.146,-1.591 64.381,3.249 -36.431,8.537 -47.764,28.673 -57.864,46.619 -8.006,14.227 -15.567,27.665 -34.616,35.449 -17.778,7.266 -38.138,5.523 -53.129,-4.546 -10.935,-7.343 -17.206,-18.127 -17.206,-29.584 0,-2.025 -1.642,-3.666 -3.667,-3.666 -2.025,0 -3.666,1.641 -3.666,3.666 0,13.941 7.454,26.942 20.451,35.671 16.991,11.415 39.977,13.426 59.99,5.246 21.412,-8.75 29.963,-23.945 38.233,-38.641 11.223,-19.944 21.825,-38.784 63.586,-45.06 1.506,-0.227 2.716,-1.362 3.039,-2.85 0.321,-1.49 -0.312,-3.022 -1.588,-3.852 C 39.473,312.302 13.106,295.601 -26.835,301.75 -17.299,291.145 -2.077,270.79 9.694,238.901 26.309,193.893 38.721,116.357 3.5,2.584 3.014,1.01 1.564,0 0,0"
             style="fill:#4c4c4c;fill-opacity:1;fill-rule:nonzero;stroke:none"
             id="path164" /></g><g
           id="g166"
           transform="translate(1298.1992,1416.9399)"><path
             d="M 0,0 12.865,12.272 17.013,7.915 C 10.33,-3.028 0,0 0,0 M 0.375,35.96 C -11.518,24.673 -7.533,7.381 -7.533,7.381 1.605,23.088 11.858,13.69 11.858,13.69 L -2.699,-0.511 c 2.351,-11.58 15.512,-10.427 19.704,-8.241 7.727,4.028 12.696,14.56 7.634,33.775 C 19.988,42.674 11.442,46.466 0.375,35.96"
             style="fill:#4c4c4c;fill-opacity:1;fill-rule:nonzero;stroke:none"
             id="path168" /></g><g
           id="g170"
           transform="translate(1340.9258,1462.8428)"><path
             d="m 0,0 c 0.367,-3.056 -1.812,-5.832 -4.869,-6.199 -3.057,-0.366 -5.831,1.814 -6.198,4.87 -0.368,3.056 1.812,5.831 4.869,6.198 C -3.142,5.236 -0.367,3.056 0,0"
             style="fill:#4c4c4c;fill-opacity:1;fill-rule:nonzero;stroke:none"
             id="path172" /></g><g
           id="g174"
           transform="translate(1254.2764,752.8652)"><path
             d="m 0,0 c -56.409,0 -108.759,17.326 -160.037,52.968 -45.101,31.345 -83.802,72.555 -121.229,112.407 -38.744,41.255 -75.34,80.221 -116.221,105.721 -1.634,1.02 -2.133,3.172 -1.114,4.807 1.021,1.634 3.173,2.133 4.808,1.114 41.65,-25.982 78.549,-65.27 117.613,-106.865 C -200.839,89.931 -122.933,6.978 0,6.978 c 72.845,0 143.957,47.503 190.506,127.176 -10.719,29.415 -19.924,52.051 -27.345,70.3 -18.009,44.281 -26.227,64.493 -20.132,95.188 7.877,39.668 -22.91,70.792 -23.222,71.103 -0.628,0.624 -0.999,1.464 -1.031,2.35 l -2.74,75.184 -42.292,-46.975 c -1.03,-1.14 -2.684,-1.471 -4.072,-0.825 -35.916,16.814 -57.904,-3.19 -72.456,-16.426 l -0.2,-0.182 c -14.618,-13.297 -34.819,-15.701 -41.367,-16.134 -10.755,-21.341 -2.4,-46.887 20.775,-62.728 13.003,-8.887 20.722,-19.857 22.945,-32.604 3.7,-21.227 -9.265,-39.461 -9.82,-40.227 -1.129,-1.562 -3.313,-1.91 -4.871,-0.782 -1.561,1.126 -1.911,3.304 -0.787,4.867 0.119,0.165 11.812,16.704 8.594,35 -1.899,10.798 -8.628,20.214 -20,27.987 -26.462,18.086 -35.726,49.032 -22.031,73.58 0.609,1.091 1.756,1.774 3.005,1.789 0.23,0.003 23.561,0.495 38.86,14.414 l 0.201,0.181 c 14.657,13.335 38.997,35.472 77.742,18.653 l 46.354,51.485 c 0.95,1.056 2.448,1.43 3.783,0.944 1.336,-0.485 2.244,-1.732 2.295,-3.152 l 3.007,-82.459 c 5.62,-5.992 32.058,-36.69 24.172,-76.403 -5.688,-28.644 1.76,-46.957 19.751,-91.2 7.572,-18.618 16.995,-41.789 27.998,-72.077 0.352,-0.969 0.257,-2.044 -0.26,-2.938 C 149.57,49.371 75.79,0 0,0"
             style="fill:#4c4c4c;fill-opacity:1;fill-rule:nonzero;stroke:none"
             id="path176" /></g><g
           id="g178"
           transform="translate(1404.9063,1241.9663)"><path
             d="m 0,0 c -0.696,0 -1.398,0.207 -2.011,0.639 -56.86,40.151 -90.073,102.396 -80.766,151.369 2.071,10.902 7.687,19.41 16.694,25.29 24.838,16.216 66.954,6.771 68.735,6.362 1.878,-0.432 3.048,-2.305 2.617,-4.181 -0.431,-1.876 -2.308,-3.042 -4.18,-2.62 -0.409,0.093 -41.031,9.186 -63.368,-5.412 -7.351,-4.801 -11.941,-11.78 -13.643,-20.741 -4.127,-21.714 1.01,-47.814 14.461,-73.494 C -47.292,50.163 -25.342,25.656 2.016,6.338 3.59,5.228 3.964,3.05 2.853,1.476 2.174,0.514 1.094,0 0,0"
             style="fill:#4c4c4c;fill-opacity:1;fill-rule:nonzero;stroke:none"
             id="path180" /></g><g
           id="g182"
           transform="translate(1143.3672,934.1025)"><path
             d="m 0,0 c -0.107,0 -0.216,0.005 -0.326,0.016 -1.917,0.176 -3.329,1.876 -3.153,3.795 2.75,29.744 -13.689,56.745 -46.29,76.031 -34.45,20.379 -22.883,44.589 -22.763,44.832 0.596,1.196 1.785,1.964 3.164,1.931 62.24,-0.784 95.647,7.654 108.337,27.259 6.509,10.055 6.304,13.565 5.602,14.761 -2.39,4.075 -18.964,3.009 -36.511,1.881 -34.516,-2.219 -88.229,-11.259 -88.767,-11.35 -1.064,-0.178 -2.147,0.142 -2.939,0.868 -22.641,20.769 -41.897,27.298 -66.471,22.553 -8.893,-1.72 -36.944,-11.666 -43.09,-13.863 -3.327,-6.755 0.613,-19.827 9.551,-31.152 13.323,-16.879 32.183,-25.966 32.371,-26.057 1.705,-0.81 2.459,-2.83 1.698,-4.557 -10.644,-24.181 13.426,-41.295 13.67,-41.466 1.517,-1.054 1.947,-3.108 0.983,-4.683 -0.965,-1.577 -2.991,-2.125 -4.618,-1.259 -9.847,5.253 -37.779,17.813 -48.602,12.946 -1.958,-0.88 -3.114,-2.305 -3.638,-4.485 -0.232,-0.967 0.375,-2.596 1.627,-4.358 4.908,-6.91 18.11,-14.73 33.847,-16.308 1.918,-0.192 3.316,-1.903 3.124,-3.819 -0.193,-1.916 -1.921,-3.315 -3.819,-3.124 -18.639,1.869 -33.2,11.267 -38.841,19.21 -2.509,3.533 -3.451,7.001 -2.723,10.029 1.026,4.27 3.642,7.458 7.564,9.222 9.568,4.294 26.043,-0.592 38.492,-5.62 -5.396,8.226 -9.469,19.79 -4.661,33.474 -6.133,3.353 -20.672,12.244 -31.95,26.532 -11.516,14.589 -15.369,31.139 -9.37,40.246 0.415,0.63 1.021,1.107 1.73,1.363 1.418,0.511 34.844,12.552 45.33,14.579 26.556,5.135 47.301,-1.563 71.249,-23.112 9.424,1.554 56.394,9.136 87.806,11.155 23.959,1.536 38.415,2.467 42.978,-5.316 2.842,-4.847 1.118,-11.451 -5.765,-22.082 C 30.678,128.216 -2.877,119.045 -66.978,119.603 -68.401,114.395 -69.725,99.755 -46.217,85.847 -11.672,65.412 6.438,35.277 3.47,3.168 3.302,1.359 1.781,0 0,0"
             style="fill:#4c4c4c;fill-opacity:1;fill-rule:nonzero;stroke:none"
             id="path184" /></g><g
           id="g186"
           transform="translate(963.8066,1017.166)"><path
             d="m 0,0 c -0.33,0 -0.664,0.048 -0.997,0.146 -10.753,3.2 -20.395,10.48 -23.449,17.708 -1.735,4.109 -0.947,7.171 0.019,9.018 1.566,2.993 4.14,4.944 7.443,5.644 11.978,2.521 31.563,-12.679 33.758,-14.422 1.508,-1.198 1.76,-3.392 0.56,-4.901 -1.196,-1.509 -3.391,-1.759 -4.9,-0.563 -7.302,5.795 -21.369,14.461 -27.975,13.059 -1.268,-0.269 -2.102,-0.902 -2.704,-2.052 -0.393,-0.75 -0.316,-1.782 0.227,-3.067 C -16.125,16.09 -8.819,9.754 0.994,6.835 2.84,6.286 3.892,4.342 3.343,2.496 2.892,0.98 1.503,0 0,0"
             style="fill:#4c4c4c;fill-opacity:1;fill-rule:nonzero;stroke:none"
             id="path188" /></g><g
           id="g190"
           transform="translate(957.2319,1322.2139)"><path
             d="m 0,0 c -0.557,0.619 -1.192,1.265 -1.89,1.923 -9.272,8.732 -19.734,19.765 -27.025,35.389 -5.555,11.907 3.879,21.21 7.043,22.78 2.737,1.36 4.369,3.169 4.849,5.378 0.752,3.468 -1.708,6.497 -2.511,7.483 -0.142,0.195 -0.312,0.754 -0.507,1.664 -0.863,4.013 -1.688,8.034 -2.51,12.056 -1.622,7.92 -3.299,16.111 -5.269,24.123 -4.375,17.783 -11.192,32.667 -20.842,45.501 -2.115,2.816 -4.565,5.251 -6.937,7.607 -0.119,0.119 -0.239,0.238 -0.358,0.358 0.094,0.075 0.189,0.151 0.284,0.228 2.566,2.059 5.219,4.188 7.543,6.766 3.631,4.026 5.364,8.586 5.015,13.187 -0.353,4.659 -2.802,8.973 -7.084,12.476 -0.959,0.785 -2.261,0.999 -3.424,0.571 -0.731,-0.271 -1.339,-0.775 -1.741,-1.417 -1.114,10.05 -5.706,19.351 -13.738,27.778 -8.909,9.35 -20.065,15.327 -30.856,21.108 l -0.397,0.213 c -1.685,0.904 -3.352,1.755 -5.003,2.558 4.132,-1.213 8.115,-2.772 12.005,-4.688 1.645,-0.809 3.625,-0.211 4.549,1.363 0.926,1.575 0.48,3.598 -1.023,4.637 -8.019,5.543 -17.536,8.903 -28.288,9.985 -4.555,0.461 -9.141,0.433 -13.572,0.416 -2.3,-0.01 -4.674,-0.022 -6.98,0.035 -2.256,0.058 -4.533,0.137 -6.803,0.223 3.556,-1.597 6.991,-3.476 10.345,-5.464 1.352,-0.8 2.695,-1.614 4.068,-2.379 0.127,-0.07 0.598,-0.331 1.083,-0.605 0.454,-0.128 1.493,-0.518 2.215,-0.795 0.12,-0.001 0.246,-0.001 0.389,0 6.723,0.041 12.47,-3.043 16.343,-7.783 2.421,-1.105 4.874,-2.312 7.376,-3.653 l 0.398,-0.213 c 10.779,-5.776 20.961,-11.232 29.1,-19.771 10.244,-10.749 13.922,-22.548 11.247,-36.064 -0.177,-0.883 -0.082,-1.641 -0.004,-2.248 0.024,-0.195 0.053,-0.414 0.072,-0.669 0.068,-0.942 0.514,-1.814 1.237,-2.421 0.724,-0.608 1.664,-0.893 2.598,-0.799 4.949,0.507 7.504,2.483 8.8,4.879 -0.373,-1.953 -1.425,-3.919 -3.11,-5.788 -1.946,-2.161 -4.376,-4.11 -6.726,-5.995 -1.139,-0.914 -2.27,-1.822 -3.353,-2.75 -0.725,-0.622 -1.162,-1.515 -1.212,-2.467 -0.049,-0.954 0.294,-1.886 0.951,-2.58 1.008,-1.066 2.068,-2.119 3.136,-3.181 2.195,-2.181 4.465,-4.436 6.279,-6.85 9.071,-12.068 15.495,-26.125 19.641,-42.976 1.938,-7.879 3.601,-16.001 5.209,-23.855 0.829,-4.044 1.656,-8.089 2.524,-12.123 0.229,-1.065 0.656,-3.047 1.908,-4.591 0.653,-0.803 0.92,-1.31 1.028,-1.572 -0.165,-0.139 -0.481,-0.365 -1.047,-0.646 -6.908,-3.429 -17.372,-16.743 -10.263,-31.981 7.836,-16.79 19.381,-28.87 28.563,-37.516 0.558,-0.529 1.061,-1.039 1.492,-1.516 3.343,-3.712 4.868,-7.106 4.535,-10.088 -0.327,-2.912 -2.48,-5.792 -6.398,-8.556 -1.799,-1.269 -3.922,-2.243 -6.171,-3.275 -1.243,-0.57 -2.53,-1.16 -3.793,-1.818 -6.051,-3.151 -8.109,-7.113 -7.105,-13.675 0.474,-3.099 1.094,-6.693 2.451,-10.114 0.931,-2.344 0.095,-3.305 -0.947,-3.994 -2.887,-1.91 -5.988,-3.492 -9.271,-5.166 -1.12,-0.57 -2.239,-1.141 -3.348,-1.726 -0.351,-0.183 -0.84,-0.332 -1.407,-0.505 -0.503,-0.154 -1.007,-0.31 -1.506,-0.503 -1.429,-0.549 -2.333,-1.967 -2.228,-3.494 l 0.019,-0.428 c 0.01,-0.225 0.018,-0.448 0.031,-0.639 0.107,-1.547 1.221,-2.839 2.737,-3.17 l 0.848,-0.183 c 0.598,-0.128 1.196,-0.256 1.793,-0.397 0.632,-0.148 1.271,-0.281 1.908,-0.412 1.324,-0.273 2.574,-0.531 3.664,-0.937 1.988,-0.74 2.939,-2.21 2.911,-4.498 l -0.007,-0.763 c -0.023,-3.638 -0.2,-4.905 -2.208,-5.962 -7.417,-3.906 -10.234,-10.258 -8.375,-18.88 1.333,-6.18 0.642,-11.567 -1.996,-15.581 -2.536,-3.855 -6.936,-6.499 -12.724,-7.646 -10.372,-2.05 -20.934,-1.193 -31.387,2.556 -8.517,3.053 -17.655,5.95 -27.158,8.612 -10.244,2.868 -19.745,0.087 -26.727,-7.839 -4.921,-5.588 -8.415,-10.351 -10.997,-14.988 -5.333,-9.581 -10.641,-16.392 -16.702,-21.438 -5.098,-4.245 -9.326,-9.164 -13.413,-13.922 -2.062,-2.4 -4.195,-4.883 -6.378,-7.197 -8.652,-9.171 -18.01,-18.03 -27.061,-26.597 l -1.576,-1.492 c -1.4,-1.324 -1.459,-3.534 -0.135,-4.932 0.687,-0.725 1.61,-1.09 2.533,-1.09 0.862,0 1.725,0.316 2.399,0.955 l 1.576,1.491 c 9.122,8.635 18.553,17.562 27.339,26.877 2.295,2.433 4.481,4.978 6.597,7.438 4.079,4.749 7.933,9.233 12.584,13.106 6.744,5.614 12.569,13.051 18.335,23.408 2.332,4.189 5.552,8.566 10.136,13.769 5.263,5.975 11.862,7.896 19.609,5.732 9.344,-2.617 18.322,-5.464 26.684,-8.462 11.658,-4.18 23.464,-5.131 35.096,-2.831 7.666,1.517 13.614,5.202 17.2,10.656 3.689,5.613 4.722,12.835 2.987,20.885 -1.196,5.553 0.195,8.809 4.806,11.236 5.875,3.095 5.911,8.508 5.934,12.09 l 0.007,0.723 c 0.065,5.204 -2.722,9.362 -7.455,11.123 -0.211,0.079 -0.421,0.153 -0.632,0.222 2.951,1.511 5.962,3.095 8.808,4.979 4.215,2.788 5.555,7.419 3.583,12.387 -0.979,2.467 -1.523,5.22 -2.039,8.597 -0.548,3.578 0.03,4.66 3.429,6.429 1.111,0.579 2.262,1.106 3.481,1.667 2.436,1.117 4.956,2.274 7.283,3.914 5.619,3.963 8.752,8.5 9.31,13.481 C 6.853,-10.485 4.737,-5.259 0,0"
             style="fill:#4c4c4c;fill-opacity:1;fill-rule:nonzero;stroke:none"
             id="path192" /></g><g
           id="g194"
           transform="translate(983.6733,850.3311)"><path
             d="m 0,0 c -0.623,0 -1.252,0.166 -1.822,0.515 -0.679,0.417 -0.679,0.417 -3.828,4.429 -60.601,77.208 -141.519,157.405 -227.849,225.813 -8.447,6.692 -12.712,16.621 -16.836,26.224 -2.141,4.984 -4.164,9.693 -6.726,13.981 -3.577,5.984 -3.758,11.736 -0.556,17.582 l 1.422,2.58 c 2.386,4.313 4.853,8.773 6.7,13.284 3.892,9.513 8.599,17.543 14.393,24.55 5.551,6.713 8.365,14.402 8.605,23.508 0.144,5.443 1.363,10.981 2.342,15.43 1.484,6.75 6.546,10.969 13.887,11.58 3.987,0.332 7.698,0.293 11.032,-0.107 17.951,-2.161 33.651,-1.817 47.993,1.051 7.692,1.537 13.794,5.533 17.183,11.25 3.278,5.527 3.863,12.474 1.647,19.558 -3.632,11.609 0.406,20.896 4.853,29.411 l 0.294,0.561 c 0.297,0.569 0.618,1.178 0.862,1.679 -0.605,0.321 -1.354,0.678 -1.766,0.875 -2.653,1.267 -5.31,2.52 -7.968,3.774 l -3.629,1.715 c -1.602,0.757 -2.381,2.596 -1.812,4.275 l 0.308,0.903 c 0.475,1.399 1.779,2.348 3.256,2.368 1.392,0.019 2.784,0.023 4.174,0.028 2.927,0.01 5.952,0.019 8.877,0.174 1.926,0.103 3.451,0.093 4.679,0.083 0.599,-0.003 1.248,-0.007 1.724,0.009 0.213,1.003 0.415,2.93 0.625,4.946 l 0.189,1.78 c 0.374,3.511 -0.098,6.733 -1.49,10.14 -1.886,4.62 -1.99,8.285 -0.318,11.204 1.69,2.952 4.983,4.742 10.067,5.473 l 0.838,0.119 c 1.797,0.255 3.496,0.495 5.086,0.919 2.857,0.761 5.19,2.555 6.399,4.919 1.079,2.11 1.184,4.448 0.301,6.759 -1.27,3.329 -3.704,6.764 -6.512,9.19 -10.286,8.874 -16.887,20.251 -23.271,31.253 l -0.653,1.122 c -5.771,9.937 -6.248,20.593 -1.502,33.533 1.345,3.668 2.83,9.083 2.26,14.049 -0.763,6.644 -2.604,13.415 -4.386,19.962 -0.377,1.385 -0.753,2.768 -1.12,4.152 -0.699,2.633 -1.62,5.199 -2.595,7.917 -0.758,2.115 -1.543,4.302 -2.214,6.528 -0.836,2.768 -1.584,5.582 -2.308,8.305 -2.111,7.936 -4.105,15.432 -8.145,22.23 -2.545,4.285 -1.789,8.587 2.026,11.512 0.106,0.095 0.301,0.42 0.347,0.623 1.487,6.579 3.86,8.885 10.245,9.522 -0.065,0.329 -0.097,0.677 -0.086,1.044 0.135,4.317 1.208,7.034 3.279,8.304 l 0.046,0.028 c -3.156,4.197 -2.507,8.487 -1.406,12.18 0.567,1.902 0.45,3.489 -1.885,5.51 -5.314,4.6 -11.589,7.79 -19.747,10.039 -4.993,1.375 -10.158,2.798 -15.049,4.989 -5.722,2.565 -11.416,5.369 -16.923,8.081 -3.48,1.711 -6.958,3.425 -10.461,5.087 -1.653,0.787 -3.555,1.41 -5.654,1.852 -5.257,1.113 -10.525,2.178 -15.792,3.244 -4.632,0.937 -9.265,1.874 -13.892,2.842 -3.491,0.732 -6.393,2.331 -9.198,3.876 l -0.692,0.38 c -1.555,0.852 -4.368,0.688 -7.09,0.534 -1.368,-0.079 -2.791,-0.163 -4.184,-0.13 -0.732,0.01 -1.522,-0.043 -2.365,-0.1 -1.743,-0.123 -3.716,-0.262 -5.718,0.214 -4.178,0.992 -8.13,2.37 -11.748,4.096 -7.32,3.492 -14.621,4.231 -22.329,2.266 -0.631,-0.161 -1.263,-0.331 -1.896,-0.503 -2.888,-0.778 -5.874,-1.582 -9.043,-1.638 -7.722,-0.135 -15.222,-2.618 -22.929,-7.593 -5.039,-3.252 -10.992,-5.09 -18.201,-5.619 -1.037,-0.076 -1.539,-0.203 -1.747,-0.272 -4.286,-4.854 -9.934,-6.417 -14.925,-7.798 -1.708,-0.472 -3.323,-0.92 -4.861,-1.477 -1.82,-0.658 -3.609,-0.576 -5.192,-0.503 -0.523,0.023 -1.051,0.056 -1.559,0.035 -1.262,-0.06 -2.452,0.613 -3.102,1.697 l -0.654,1.094 c -2.988,-3.559 -5.413,-7.456 -7.067,-11.373 -2.679,-6.345 -5.177,-9.311 -11.317,-7.959 0.56,-1.015 0.95,-2.142 0.946,-3.4 -0.029,-6.175 -2.647,-10.754 -7.784,-13.615 -3.36,-1.873 -6.608,-4.237 -9.653,-7.028 -9.098,-8.345 -14.709,-19.428 -19.679,-30.064 -7.438,-15.927 -11.389,-33.385 -15.209,-50.268 l -1.238,-5.452 c -0.124,-0.54 -0.059,-1.42 0.003,-2.271 l 0.018,-0.248 c 0.137,-1.875 0.309,-3.755 0.48,-5.633 0.324,-3.557 0.66,-7.236 0.758,-10.916 0.544,-20.497 3.848,-35.594 10.714,-48.955 3.179,-6.184 5.34,-13.546 6.249,-21.284 1.223,-10.411 4.909,-19.869 8.812,-29.881 1.573,-4.032 3.199,-8.203 4.63,-12.402 0.383,-1.125 1.02,-2.188 1.706,-2.846 7.988,-7.663 8.315,-17.435 7.866,-24.118 -0.431,-6.399 -0.532,-13.244 1.626,-19.939 1.301,-4.039 0.181,-7.856 -3.154,-10.751 -3.72,-3.224 -7.497,-6.644 -11.232,-10.164 -0.44,-0.414 -1.471,-1.388 -1.652,-1.827 -0.849,-5.334 -1.583,-10.261 -1.642,-15.197 -0.031,-2.561 -0.077,-6.429 -3.753,-9.303 -3.203,-2.506 -5.307,-6.005 -6.62,-11.012 -0.451,-1.716 -1.244,-3.229 -1.943,-4.564 -0.307,-0.585 -0.615,-1.168 -0.883,-1.764 -0.43,-0.948 -0.916,-1.888 -1.404,-2.828 -0.979,-1.882 -1.903,-3.661 -2.168,-5.303 -0.916,-5.655 -4.139,-9.006 -9.581,-9.961 -4.401,-0.774 -8.374,-3.042 -11.81,-6.743 -2.499,-2.694 -4.946,-5.575 -7.31,-8.36 -2.335,-2.748 -4.748,-5.591 -7.256,-8.31 -20.966,-22.723 -33.26,-49.707 -45.265,-83.231 -0.649,-1.817 -2.65,-2.758 -4.461,-2.108 -1.814,0.65 -2.759,2.646 -2.108,4.46 10.637,29.703 23.657,60.632 46.705,85.611 2.412,2.614 4.777,5.4 7.065,8.094 2.415,2.845 4.912,5.784 7.515,8.59 4.497,4.844 9.783,7.827 15.717,8.868 2.246,0.396 3.402,1.125 3.901,4.204 0.444,2.75 1.674,5.117 2.864,7.407 0.43,0.826 0.86,1.651 1.237,2.485 0.324,0.716 0.692,1.422 1.061,2.127 0.579,1.105 1.126,2.149 1.375,3.098 1.696,6.468 4.663,11.288 9.071,14.735 0.816,0.639 1.042,1.195 1.073,3.891 0.064,5.414 0.837,10.613 1.765,16.36 0.409,2.537 2.402,4.415 3.721,5.659 3.804,3.586 7.654,7.071 11.445,10.358 1.406,1.219 1.457,2.182 1.084,3.339 -2.524,7.836 -2.4,15.795 -1.945,22.547 0.581,8.634 -1.135,14.202 -5.735,18.616 -1.499,1.438 -2.734,3.439 -3.481,5.631 -1.382,4.053 -2.979,8.153 -4.525,12.116 -3.891,9.982 -7.915,20.303 -9.243,31.601 -0.812,6.92 -2.721,13.459 -5.523,18.91 -7.368,14.339 -10.91,30.364 -11.484,51.958 -0.091,3.457 -0.417,7.021 -0.732,10.469 -0.174,1.92 -0.35,3.842 -0.489,5.763 l -0.018,0.242 c -0.091,1.234 -0.203,2.772 0.153,4.334 l 1.235,5.438 c 3.902,17.244 7.937,35.074 15.695,51.68 5.263,11.271 11.242,23.045 21.284,32.255 3.444,3.159 7.137,5.844 10.973,7.981 2.848,1.586 4.148,3.871 4.2,7.394 -0.193,0.47 -1.014,1.458 -1.467,2.001 l -0.457,0.553 c -0.744,0.911 -1.678,1.78 -2.667,2.698 -0.474,0.44 -0.947,0.88 -1.407,1.33 -1.164,1.14 -1.387,2.933 -0.535,4.32 l 0.679,1.107 c 0.856,1.4 2.57,2.016 4.116,1.475 0.66,-0.228 1.321,-0.45 1.981,-0.672 1.5,-0.503 3.049,-1.022 4.585,-1.618 3.065,-1.186 3.819,-1.072 3.938,-1.036 0.264,0.163 0.873,1.004 2.157,4.041 2.198,5.209 5.547,10.36 9.683,14.894 2.548,2.794 6.631,3.395 9.912,3.876 0.415,0.061 0.82,0.121 1.214,0.184 1.569,0.26 3.122,-0.597 3.753,-2.062 0.441,-1.024 0.359,-2.164 -0.161,-3.091 0.875,0.259 1.745,0.499 2.601,0.736 4.703,1.302 8.764,2.426 11.69,5.85 1.615,1.883 4.232,2.3 6.332,2.454 6.096,0.447 10.84,1.885 14.928,4.523 8.831,5.7 17.529,8.548 26.591,8.708 2.306,0.039 4.755,0.699 7.348,1.398 0.664,0.179 1.326,0.357 1.987,0.526 9.226,2.352 18.33,1.436 27.058,-2.73 3.174,-1.512 6.657,-2.726 10.356,-3.603 0.966,-0.229 2.253,-0.139 3.617,-0.044 0.963,0.067 1.969,0.146 3.001,0.115 1.126,-0.018 2.344,0.048 3.636,0.121 3.532,0.204 7.536,0.432 10.845,-1.381 l 0.705,-0.388 c 2.464,-1.358 4.791,-2.64 7.262,-3.156 4.609,-0.967 9.227,-1.9 13.844,-2.834 5.288,-1.07 10.575,-2.138 15.853,-3.254 2.632,-0.558 5.055,-1.356 7.203,-2.376 3.533,-1.678 7.041,-3.404 10.549,-5.133 5.453,-2.683 11.09,-5.459 16.696,-7.972 4.403,-1.974 9.308,-3.325 14.05,-4.63 9.069,-2.501 16.415,-6.26 22.459,-11.49 4.122,-3.57 5.469,-7.868 4.004,-12.78 -0.984,-3.302 -0.809,-4.829 0.749,-6.532 0.821,-0.901 2.349,-2.574 2.024,-4.855 -0.324,-2.262 -2.097,-3.342 -3.975,-4.485 l -0.047,-0.029 c -0.111,-0.335 -0.265,-1.007 -0.343,-2.084 0.137,-0.155 0.295,-0.33 0.429,-0.477 0.433,-0.474 0.971,-1.064 1.503,-1.765 0.75,-0.988 0.921,-2.302 0.445,-3.448 -0.477,-1.146 -1.525,-1.954 -2.756,-2.12 -0.656,-0.089 -1.234,-0.176 -1.762,-0.257 -1.096,-0.165 -2.045,-0.308 -3.052,-0.37 -4.284,-0.267 -4.284,-0.267 -5.172,-4.198 -0.404,-1.788 -1.519,-3.561 -2.912,-4.627 -0.752,-0.576 -1.167,-0.895 -0.268,-2.407 4.534,-7.633 6.748,-15.954 8.889,-24.002 0.708,-2.667 1.443,-5.425 2.244,-8.081 0.62,-2.055 1.34,-4.065 2.103,-6.19 0.981,-2.734 1.995,-5.563 2.769,-8.481 0.365,-1.371 0.737,-2.74 1.11,-4.111 1.849,-6.798 3.763,-13.828 4.585,-20.998 0.726,-6.327 -1.035,-12.871 -2.641,-17.248 -4.032,-10.991 -3.728,-19.512 0.986,-27.625 l 0.653,-1.125 c 6.376,-10.987 12.398,-21.365 21.795,-29.474 3.697,-3.193 6.784,-7.56 8.473,-11.982 1.584,-4.15 1.367,-8.563 -0.608,-12.426 -2.108,-4.121 -6.049,-7.214 -10.814,-8.485 -1.998,-0.532 -3.985,-0.812 -5.908,-1.084 l -0.819,-0.117 c -3.642,-0.523 -4.699,-1.499 -5.006,-2.033 -0.511,-0.894 -0.255,-2.704 0.722,-5.1 1.819,-4.457 2.464,-8.879 1.967,-13.52 l -0.186,-1.762 c -0.856,-8.195 -1.143,-11.323 -9.336,-11.207 -1.129,0.004 -2.544,0.018 -4.264,-0.074 -0.154,-0.008 -0.308,-0.016 -0.461,-0.023 2.777,-1.327 4.961,-2.396 5.756,-4.785 0.783,-2.354 -0.239,-4.304 -1.785,-7.255 l -0.289,-0.551 c -3.928,-7.521 -7.218,-15.023 -4.379,-24.099 2.816,-8.998 1.996,-17.946 -2.304,-25.199 -4.411,-7.442 -12.159,-12.603 -21.817,-14.533 -15.078,-3.016 -31.498,-3.388 -50.197,-1.138 -2.864,0.347 -6.1,0.373 -9.618,0.082 -4.32,-0.36 -6.822,-2.363 -7.651,-6.125 -0.962,-4.376 -2.054,-9.337 -2.18,-14.115 -0.281,-10.724 -3.619,-19.809 -10.203,-27.77 -5.337,-6.456 -9.693,-13.896 -13.314,-22.746 -2.001,-4.891 -4.568,-9.531 -7.05,-14.02 l -1.41,-2.555 c -2.017,-3.682 -1.894,-6.768 0.426,-10.649 2.802,-4.687 5.011,-9.832 7.148,-14.806 3.957,-9.214 7.694,-17.914 14.758,-23.51 C -142.419,167.487 -61.091,86.879 -0.162,9.254 1.027,7.738 2.066,6.415 2.401,6.023 3.576,4.913 3.855,3.097 2.977,1.664 2.318,0.592 1.172,0 0,0"
             style="fill:#4c4c4c;fill-opacity:1;fill-rule:nonzero;stroke:none"
             id="path196" /></g><g
           id="g198"
           transform="translate(817.2739,1411.1011)"><path
             d="m 0,0 c 3.391,1.249 6.781,2.498 10.202,3.623 3.434,1.129 6.91,2.167 10.401,3.009 1.155,0.279 2.304,0.555 3.444,0.885 0.704,-2.09 1.096,-4.388 1.014,-6.826 -0.134,-3.995 -1.458,-7.562 -3.474,-10.292 -2.241,1.147 -4.515,2.212 -6.866,3.079 -3.341,1.23 -6.631,2.639 -9.97,3.877 C 3.22,-2.077 1.681,-1.664 0.143,-1.217 0.101,-0.809 0.018,-0.417 0,0"
             style="fill:#4c4c4c;fill-opacity:1;fill-rule:nonzero;stroke:none"
             id="path200" /></g><g
           id="g202"
           transform="translate(926.5596,1374.502)"><path
             d="M 0,0 C 0.868,-0.528 2.093,-1.116 3.205,-1.602 4.346,-2.11 5.521,-2.57 6.714,-2.977 9.1,-3.798 11.562,-4.428 14.08,-4.813 c 2.514,-0.34 5.072,-0.403 7.647,-0.105 2.563,0.346 5.068,1.177 7.476,2.42 -1.988,-1.804 -4.32,-3.361 -6.925,-4.44 C 19.672,-7.969 16.89,-8.646 14.057,-9 11.227,-9.311 8.358,-9.342 5.499,-9.138 4.067,-9.04 2.64,-8.879 1.211,-8.652 c -1.462,0.231 -2.785,0.463 -4.405,0.911 l -0.137,0.038 c -2.254,0.625 -3.576,2.959 -2.952,5.214 0.625,2.254 2.959,3.576 5.213,2.951 C -0.691,0.357 -0.321,0.193 0,0"
             style="fill:#4c4c4c;fill-opacity:1;fill-rule:nonzero;stroke:none"
             id="path204" /></g><g
           id="g206"
           transform="translate(1487.3232,933.5596)"><path
             d="m 0,0 c -0.909,0 -1.785,0.354 -2.44,0.996 -33.948,33.231 -53.817,103.427 -74.851,177.746 -24.287,85.804 -49.4,174.53 -98.572,226.594 -17.21,18.223 -36.717,38.877 -89.005,40.745 -69.854,2.486 -87.08,-16.747 -95.301,-37.912 -7.399,-19.056 -68.381,-10.967 -80.531,-9.15 -11.476,1.398 -18.376,0.508 -22.286,-2.899 -6.821,-5.948 -7.065,-22.126 -7.436,-46.617 -0.541,-35.79 14.455,-41.445 50.683,-55.108 5.366,-2.023 10.914,-4.116 16.985,-6.521 2.577,-1.023 5.057,-1.904 7.453,-2.759 11.527,-4.108 21.483,-7.656 28.749,-22.124 18.409,-36.658 23.131,-70.179 23.323,-71.589 0.259,-1.909 -1.076,-3.667 -2.986,-3.928 -1.906,-0.253 -3.667,1.077 -3.928,2.985 -0.045,0.334 -4.783,33.831 -22.645,69.4 -6.009,11.968 -13.915,14.785 -24.857,18.683 -2.453,0.875 -4.987,1.778 -7.679,2.844 -6.019,2.385 -11.538,4.466 -16.878,6.481 -35.987,13.571 -55.813,21.048 -55.197,61.742 0.413,27.3 0.662,43.778 9.827,51.77 5.604,4.888 13.922,6.249 27.809,4.554 28.016,-4.179 69.123,-5.454 73.09,4.763 9.152,23.567 27.858,45.016 102.053,42.357 51.087,-1.824 71.913,-19.72 93.83,-42.926 50.347,-53.307 75.696,-142.87 100.212,-229.483 20.14,-71.152 39.196,-138.48 70.058,-171.624 10.483,16.4 52.828,88.976 52.828,190.592 0,105.772 -29.714,184.399 -88.317,233.698 -1.474,1.24 -1.664,3.441 -0.424,4.916 1.241,1.476 3.443,1.664 4.916,0.424 C 28.735,387.963 59.285,307.539 59.285,199.612 59.285,81.892 3.404,2.252 2.84,1.462 2.247,0.632 1.322,0.104 0.307,0.014 0.204,0.004 0.103,0 0,0"
             style="fill:#4c4c4c;fill-opacity:1;fill-rule:nonzero;stroke:none"
             id="path208" /></g><g
           id="g210"
           transform="translate(1195.5371,910.8633)"><path
             d="m 0,0 c 2.28,-1.403 2.99,-4.39 1.587,-6.67 -1.403,-2.28 -4.39,-2.991 -6.67,-1.587 -2.28,1.403 -2.991,4.39 -1.587,6.67 C -5.267,0.693 -2.28,1.403 0,0"
             style="fill:#4c4c4c;fill-opacity:1;fill-rule:nonzero;stroke:none"
             id="path212" /></g><g
           id="g214"
           transform="translate(1237.0332,847.2344)"><path
             d="m 0,0 c 3.303,0 8.189,-0.542 15.59,-1.598 5.414,-0.769 8.543,-4.333 11.854,-8.105 2.363,-2.691 5.039,-5.741 9.081,-8.478 8.821,-5.973 13.585,-10.014 19.104,-14.694 l 2.622,-2.219 c 3.438,-2.896 5.666,-4.03 8.243,-5.343 2.273,-1.157 4.849,-2.467 8.445,-5.056 3.032,-2.179 4.986,-1.823 8.534,-1.182 3.028,0.551 6.798,1.236 11.809,0.199 0.054,-0.01 0.109,-0.021 0.162,-0.032 -0.802,0.661 -1.454,1.351 -2.073,2.007 -0.913,0.967 -1.774,1.88 -3.225,2.796 -4.424,2.795 -6.341,6.522 -8.993,11.68 -0.68,1.323 -1.425,2.773 -2.297,4.368 -4.602,8.433 -6.191,29.726 -5.849,42.153 0.326,11.791 -5.499,17.437 -10.441,20.098 -1.132,0.608 -4.577,2.462 -4.357,5.896 0.228,3.542 3.893,4.947 6.837,6.073 0.673,0.258 1.367,0.525 1.764,0.724 l 0.468,0.247 c 3.859,2.062 5.395,1.576 20.8,-4.265 13.942,-5.294 28.01,0.187 36.414,3.459 0.734,0.286 1.422,0.552 2.06,0.793 0.517,0.197 0.933,0.376 1.267,0.535 -0.933,0.598 -2.599,1.481 -5.542,2.644 -3.585,1.416 -6.973,2.753 -7.298,5.957 -0.298,2.952 2.026,4.466 4.965,6.384 0.93,0.605 2.023,1.317 3.236,2.182 0.485,0.347 0.878,0.644 1.195,0.896 -1.469,0.64 -3.684,1.43 -5.85,2.204 l -0.834,0.299 C 108.44,73.931 99.38,73.54 87.407,69.303 75.967,65.253 65.376,68.164 59.049,69.9 c -0.99,0.272 -1.862,0.513 -2.598,0.681 -0.618,0.142 -1.164,0.255 -1.638,0.353 -2.173,0.453 -4.421,0.921 -5.034,3.42 -0.625,2.556 1.098,3.965 3.707,6.099 l 0.974,0.798 c 2.334,1.926 2.334,1.926 2.78,4.465 0.324,1.843 0.812,4.627 1.903,9.017 2.476,9.973 0.779,19.648 -0.461,26.714 -0.304,1.737 -0.593,3.376 -0.786,4.834 -0.681,5.157 0.19,7.383 1.667,10.589 0.751,1.628 1.686,3.655 2.636,7.083 1.379,4.974 3.377,7.927 5.14,10.533 1.867,2.762 3.48,5.145 4.421,9.981 1.616,8.303 2.438,9.612 6.531,15.169 1.234,1.676 2.771,3.762 4.788,6.702 2.964,4.319 2.778,6.298 2.574,6.557 -0.488,0.615 -4.674,1.998 -16.251,-2.491 -17.112,-6.636 -30.692,-23.435 -33.842,-30.54 -1.023,-2.306 -1.656,-4.373 -2.267,-6.374 -1.342,-4.388 -2.608,-8.534 -7.382,-11.411 -1.626,-0.981 -2.126,-2.711 -2.611,-4.873 -0.36,-1.601 -0.852,-3.793 -3.099,-4.573 -0.351,-0.123 -0.853,-0.24 -1.467,-0.213 -0.217,-0.444 -0.437,-0.921 -0.606,-1.286 -1.226,-2.662 -2.492,-5.412 -5.191,-5.98 -0.245,-0.05 -0.488,-0.08 -0.732,-0.088 -0.058,-0.202 -0.11,-0.394 -0.157,-0.559 -0.61,-2.174 -1.365,-4.879 -4.237,-5.094 -0.014,-0.002 -0.027,-0.002 -0.04,-0.003 -0.098,-0.328 -0.185,-0.637 -0.257,-0.891 -0.766,-2.702 -1.562,-5.519 -4.663,-5.234 -0.024,0.001 -0.048,0.004 -0.076,0.007 -0.908,-1.251 -2.033,-2.388 -3.629,-2.601 -0.632,-1.64 -1.5,-3.233 -3.361,-3.808 -0.672,-0.208 -1.37,-0.23 -2.035,-0.082 -0.73,-0.338 -1.502,-0.48 -2.308,-0.404 -0.36,-1.221 -1.047,-2.59 -2.671,-3.238 -0.533,-0.211 -1.432,-0.436 -2.526,-0.164 -0.424,-0.835 -1.025,-1.808 -2.197,-2.345 -0.148,-0.337 -0.41,-1.066 -0.727,-2.506 -1.13,-5.156 -5.096,-7.264 -8.285,-8.958 -0.659,-0.351 -1.335,-0.709 -2.01,-1.105 -9.061,-5.31 -16.112,-10.56 -19.341,-14.405 -5.203,-6.192 -12.651,-10.434 -16.23,-12.473 l -0.658,-0.376 c -0.823,-0.474 -1.945,-1.057 -3.185,-1.701 -2.196,-1.14 -6.765,-3.508 -7.617,-4.558 -1.088,-1.588 -2.313,-2.311 -3.304,-2.693 0.032,-0.054 0.063,-0.106 0.094,-0.153 0.617,-0.974 0.721,-2.197 0.269,-3.255 -0.268,-0.623 -0.703,-1.148 -1.247,-1.52 0.624,-0.47 1.275,-0.932 1.754,-1.271 0.696,-0.493 1.37,-0.972 1.953,-1.419 1.436,-1.103 2.601,-2.35 3.835,-3.669 2.338,-2.498 4.987,-5.33 10.756,-8.692 4.34,-2.529 7.268,-5.407 10.658,-8.741 4.37,-4.3 9.324,-9.172 19.235,-15.201 9.778,-5.949 11.125,-10.558 12.063,-16.913 0.711,-4.819 1.517,-10.282 9.845,-20.035 2.578,-3.02 5.32,-5.616 8.115,-7.85 -2.417,3.098 -4.693,6.531 -6.823,10.295 -5.104,9.017 -3.076,12.701 -0.346,15.975 0.24,0.286 0.481,0.571 0.699,0.878 0.68,0.952 0.78,1.273 0.792,1.328 -0.001,-0.004 -0.003,-0.005 -0.004,-0.005 -0.031,0 -0.17,0.388 -0.859,1.447 -0.955,1.473 -0.998,3.181 -0.11,4.572 C -5.616,-0.768 -3.928,0 0,0 m 33.108,-57.419 c -0.056,0 -0.114,10e-4 -0.172,0.004 -1.106,0.055 -27.283,1.577 -46.336,23.891 -9.632,11.278 -10.679,18.369 -11.442,23.546 -0.692,4.694 -1.074,7.28 -8.787,11.97 -10.6,6.448 -16.091,11.85 -20.503,16.189 -3.18,3.128 -5.691,5.597 -9.274,7.685 -6.656,3.877 -9.943,7.391 -12.341,9.956 -1.122,1.199 -2.008,2.147 -2.989,2.899 -0.519,0.399 -1.118,0.823 -1.739,1.261 -3.499,2.481 -7.117,5.046 -6.317,8.785 0.302,1.408 1.133,2.371 2.101,3.036 -0.283,1.526 -0.126,3.222 1.177,4.643 1.194,1.303 2.573,1.65 3.313,1.836 0.11,0.028 0.225,0.046 0.34,0.09 0.001,0.013 0.051,0.069 0.124,0.175 1.497,2.187 4.986,4.101 10.135,6.773 1.137,0.589 2.167,1.121 2.92,1.555 l 0.684,0.39 c 3.226,1.839 9.94,5.664 14.34,10.9 5.095,6.066 15.442,12.589 21.157,15.938 0.759,0.444 1.522,0.85 2.263,1.244 3.125,1.66 4.343,2.46 4.744,4.292 0.842,3.838 1.865,5.805 3.707,6.904 0.579,1.195 1.643,3.28 3.975,3.886 0.312,0.082 0.679,0.142 1.089,0.152 0.377,1.186 1.07,2.473 2.565,3.152 0.691,0.316 2.039,0.69 3.71,-0.051 0.489,0.26 0.967,0.4 1.422,0.457 0.644,1.84 1.533,4.345 4.255,4.517 0.178,0.013 0.427,0.014 0.714,-0.024 0.785,1.23 1.778,2.721 3.276,3.239 0.912,3.06 1.938,5.52 4.502,5.87 0.647,2.084 1.574,4.107 3.774,4.755 0.537,0.157 1.089,0.202 1.628,0.145 0.239,0.482 0.483,1.012 0.668,1.412 1.228,2.664 2.388,5.181 4.941,5.776 0.006,0.001 0.011,0.002 0.017,0.004 0.611,2.442 1.855,5.988 5.559,8.221 2.383,1.437 3.045,3.331 4.312,7.476 0.641,2.096 1.367,4.472 2.561,7.164 3.659,8.252 18.475,26.761 37.699,34.216 12.26,4.755 20.644,4.864 24.244,0.316 1.928,-2.435 3.095,-6.986 -2.291,-14.835 -2.083,-3.036 -3.658,-5.175 -4.925,-6.893 -3.635,-4.936 -3.931,-5.34 -5.299,-12.364 -1.213,-6.233 -3.486,-9.593 -5.49,-12.558 -1.605,-2.373 -3.121,-4.613 -4.195,-8.488 -1.102,-3.971 -2.212,-6.381 -3.023,-8.14 -1.15,-2.494 -1.538,-3.335 -1.087,-6.754 0.173,-1.31 0.437,-2.806 0.741,-4.542 1.347,-7.678 3.193,-18.196 0.361,-29.6 -1.033,-4.156 -1.496,-6.797 -1.803,-8.544 -0.728,-4.142 -1.155,-5.171 -4.039,-7.654 0.265,-0.072 0.539,-0.147 0.822,-0.225 5.538,-1.521 14.807,-4.066 24.183,-0.749 13.433,4.754 24.216,5.159 34.965,1.31 l 0.83,-0.296 c 7.349,-2.625 11.038,-3.943 11.559,-7.677 0.463,-3.324 -2.442,-5.704 -5.2,-7.672 -1.129,-0.809 -2.163,-1.491 -3.069,-2.084 0.21,-0.086 0.435,-0.176 0.676,-0.272 5.687,-2.245 10.945,-4.931 10.914,-9.345 -0.031,-4.313 -5.075,-6.221 -6.733,-6.848 -0.619,-0.234 -1.287,-0.495 -1.998,-0.771 -8.726,-3.398 -24.974,-9.726 -41.42,-3.481 -5.778,2.192 -12.938,4.907 -14.437,4.907 -0.034,0 -0.065,-0.001 -0.093,-0.004 -0.04,-0.018 -0.3,-0.158 -0.51,-0.269 -0.186,-0.101 -0.385,-0.206 -0.605,-0.316 -0.714,-0.363 -1.541,-0.679 -2.415,-1.014 -0.088,-0.034 -0.184,-0.069 -0.286,-0.11 5.48,-3.38 13.136,-10.786 12.725,-25.633 -0.372,-13.545 1.548,-32.294 4.999,-38.619 0.901,-1.651 1.674,-3.151 2.377,-4.52 2.385,-4.638 3.699,-7.192 6.513,-8.972 2.197,-1.385 3.515,-2.784 4.574,-3.905 1.359,-1.441 2.107,-2.234 4.511,-2.807 4.457,-1.061 5.898,-4.02 5.351,-6.481 -0.772,-3.471 -5.54,-6.152 -14.437,-4.31 -3.682,0.762 -6.465,0.256 -9.152,-0.23 -3.944,-0.719 -8.42,-1.529 -13.854,2.382 -3.163,2.276 -5.385,3.407 -7.536,4.502 -2.714,1.382 -5.519,2.81 -9.572,6.224 l -2.641,2.235 c -5.584,4.736 -9.994,8.476 -18.501,14.237 -4.785,3.239 -7.906,6.795 -10.414,9.651 -3.112,3.545 -4.864,5.414 -7.594,5.804 -2.649,0.376 -9.347,1.33 -13.473,1.52 0.52,-2.239 -0.111,-4.252 -1.899,-6.763 -0.321,-0.45 -0.671,-0.875 -1.023,-1.298 -1.303,-1.561 -2.09,-2.503 1.06,-8.066 9.065,-16.016 20.325,-24.971 34.422,-27.381 1.82,-0.311 3.081,-1.983 2.881,-3.818 -0.194,-1.776 -1.696,-3.109 -3.466,-3.109"
             style="fill:#4c4c4c;fill-opacity:1;fill-rule:nonzero;stroke:none"
             id="path216" /></g></g></g></g></svg>
